<svg width="19" height="19" viewBox="0 0 19 19" fill="none" xmlns="http://www.w3.org/2000/svg">
<path d="M2.83247 2.96875C2.54776 2.96875 2.33446 3.2297 2.38137 3.49066L4.30363 15.2601C4.35113 15.5686 4.61194 15.7819 4.92039 15.7819H14.2215C14.4355 15.7819 14.6252 15.6156 14.6727 15.4022L16.6186 3.51441C16.6655 3.2297 16.4522 2.9925 16.1675 2.9925L2.83247 2.96875ZM10.9947 11.4634H8.02897L7.24551 7.26364H11.7306L10.9947 11.4634Z" fill="#2684FF"/>
<path d="M15.9778 7.26358H11.7069L10.9947 11.4633H8.02893L4.54065 15.6154C4.54065 15.6154 4.7069 15.7581 4.94425 15.7581H14.2453C14.4592 15.7581 14.6489 15.5918 14.6964 15.3784L15.9778 7.26358Z" fill="url(#paint0_linear_180_252)"/>
<defs>
<linearGradient id="paint0_linear_180_252" x1="16.977" y1="8.44663" x2="9.89895" y2="13.9721" gradientUnits="userSpaceOnUse">
<stop offset="0.176" stop-color="#0052CC"/>
<stop offset="1" stop-color="#2684FF"/>
</linearGradient>
</defs>
</svg>
