<svg width="19" height="19" viewBox="0 0 19 19" fill="none" xmlns="http://www.w3.org/2000/svg">
<path d="M2.22432 4.11357C2.18914 3.10197 2.97719 2.16919 4.04253 2.16919H14.9586C16.024 2.16919 16.812 3.10197 16.7768 4.11357C16.743 5.08524 16.7869 6.34399 17.1037 7.37029C17.4215 8.39985 17.9574 9.05046 18.8351 9.13417V10.0822C17.9574 10.166 17.4215 10.8166 17.1037 11.8461C16.7869 12.8724 16.743 14.1312 16.7768 15.1028C16.812 16.1144 16.024 17.0471 14.9586 17.0471H4.04253C2.97719 17.0471 2.18914 16.1143 2.22432 15.1028C2.25816 14.1312 2.21422 12.8724 1.89731 11.8461C1.57965 10.8167 1.04231 10.166 0.164597 10.0822V9.13417C1.04231 9.0506 1.57965 8.39985 1.89731 7.37029C2.21422 6.34399 2.25801 5.08524 2.22432 4.11357Z" fill="url(#paint0_linear_119_228)"/>
<g filter="url(#filter0_d_119_228)">
<path d="M9.96159 13.617C11.6863 13.617 12.7256 12.7726 12.7256 11.3797C12.7256 10.3269 11.984 9.56463 10.8829 9.44397V9.4001C11.6919 9.2685 12.3267 8.51724 12.3267 7.67825C12.3267 6.48281 11.3829 5.7041 9.94474 5.7041H6.70882V13.617H9.96159ZM7.96724 6.70762H9.64139C10.5515 6.70762 11.0683 7.11341 11.0683 7.84822C11.0683 8.6324 10.4672 9.07108 9.37734 9.07108H7.96724V6.70762ZM7.96724 12.6135V10.0088H9.63012C10.8211 10.0088 11.4391 10.4475 11.4391 11.3029C11.4391 12.1584 10.838 12.6135 9.70316 12.6135H7.96724Z" fill="url(#paint1_linear_119_228)"/>
<path d="M9.96159 13.617C11.6863 13.617 12.7256 12.7726 12.7256 11.3797C12.7256 10.3269 11.984 9.56463 10.8829 9.44397V9.4001C11.6919 9.2685 12.3267 8.51724 12.3267 7.67825C12.3267 6.48281 11.3829 5.7041 9.94474 5.7041H6.70882V13.617H9.96159ZM7.96724 6.70762H9.64139C10.5515 6.70762 11.0683 7.11341 11.0683 7.84822C11.0683 8.6324 10.4672 9.07108 9.37734 9.07108H7.96724V6.70762ZM7.96724 12.6135V10.0088H9.63012C10.8211 10.0088 11.4391 10.4475 11.4391 11.3029C11.4391 12.1584 10.838 12.6135 9.70316 12.6135H7.96724Z" stroke="white" stroke-width="0.24566"/>
</g>
<defs>
<filter id="filter0_d_119_228" x="2.65543" y="2.63338" width="14.1235" height="16.0197" filterUnits="userSpaceOnUse" color-interpolation-filters="sRGB">
<feFlood flood-opacity="0" result="BackgroundImageFix"/>
<feColorMatrix in="SourceAlpha" type="matrix" values="0 0 0 0 0 0 0 0 0 0 0 0 0 0 0 0 0 0 127 0" result="hardAlpha"/>
<feOffset dy="0.98264"/>
<feGaussianBlur stdDeviation="1.96528"/>
<feColorMatrix type="matrix" values="0 0 0 0 0 0 0 0 0 0 0 0 0 0 0 0 0 0 0.15 0"/>
<feBlend mode="normal" in2="BackgroundImageFix" result="effect1_dropShadow_119_228"/>
<feBlend mode="normal" in="SourceGraphic" in2="effect1_dropShadow_119_228" result="shape"/>
</filter>
<linearGradient id="paint0_linear_119_228" x1="2.93898" y1="2.56294" x2="19.2535" y2="15.5136" gradientUnits="userSpaceOnUse">
<stop stop-color="#9013FE"/>
<stop offset="1" stop-color="#6610F2"/>
</linearGradient>
<linearGradient id="paint1_linear_119_228" x1="7.27812" y1="6.22482" x2="10.9246" y2="12.3922" gradientUnits="userSpaceOnUse">
<stop stop-color="white"/>
<stop offset="1" stop-color="#F1E5FC"/>
</linearGradient>
</defs>
</svg>
