<svg width="19" height="19" viewBox="0 0 19 19" fill="none" xmlns="http://www.w3.org/2000/svg">
<path fill-rule="evenodd" clip-rule="evenodd" d="M9.49994 2.96851L15.2582 3.13131C16.2757 3.16008 17.1172 3.93248 17.233 4.94375C17.4891 7.18228 17.4891 9.44271 17.233 11.6812C17.1172 12.6925 16.2757 13.4649 15.2582 13.4937L10.8854 13.6173V15.2396H13.4583C13.7862 15.2396 14.052 15.5054 14.052 15.8333C14.052 16.1612 13.7862 16.4271 13.4583 16.4271H5.54162C5.2137 16.4271 4.94787 16.1612 4.94787 15.8333C4.94787 15.5054 5.2137 15.2396 5.54162 15.2396H8.11453V13.6173L3.74165 13.4937C2.72418 13.4649 1.88263 12.6925 1.76692 11.6812C1.5108 9.44271 1.5108 7.18228 1.76692 4.94375C1.88263 3.93247 2.72419 3.16008 3.74165 3.13131L9.49994 2.96851ZM9.49994 4.15648L3.77521 4.31834C3.34834 4.33041 2.99527 4.65446 2.94673 5.07874C2.70086 7.22757 2.70086 9.39742 2.94673 11.5462C2.99527 11.9705 3.34834 12.2946 3.77521 12.3066L9.49994 12.4685L15.2247 12.3066C15.6515 12.2946 16.0046 11.9705 16.0532 11.5462C16.299 9.39742 16.299 7.22757 16.0532 5.07874C16.0046 4.65446 15.6515 4.33041 15.2247 4.31834L9.49994 4.15648Z" fill="#E9E9E9"/>
</svg>
