<svg width="19" height="19" viewBox="0 0 19 19" fill="none" xmlns="http://www.w3.org/2000/svg">
<path fill-rule="evenodd" clip-rule="evenodd" d="M10.9546 7.54063H12.632V9.24766H13.4781C13.864 9.24766 14.2648 9.17344 14.6359 9.05469C14.814 8.99531 15.0218 8.90625 15.2 8.80234C14.9625 8.49063 14.8437 8.10469 14.814 7.71875C14.7695 7.19922 14.8734 6.51641 15.2296 6.11563L15.4078 5.90781L15.6156 6.07109C16.15 6.50156 16.5804 7.08047 16.6695 7.76328C17.3078 7.57031 18.05 7.61484 18.614 7.94141L18.8367 8.075L18.7179 8.3125C18.2429 9.23281 17.2484 9.52969 16.2835 9.47031C14.8289 13.0773 11.682 14.7844 7.8523 14.7844C5.87808 14.7844 4.06714 14.0422 3.02808 12.2906L3.01324 12.2609L2.8648 11.9492C2.50855 11.1773 2.40464 10.3313 2.47886 9.48516L2.50855 9.23281H3.93355V7.54063H5.61089V5.87812H8.95074V4.20078H10.9546V7.54063V7.54063Z" fill="#3A4D54"/>
<path d="M16.3874 8.17891C16.5062 7.30312 15.8531 6.62031 15.4374 6.29375C14.9773 6.82813 14.9031 8.25312 15.6304 8.84687C15.2148 9.20312 14.3687 9.54453 13.4781 9.54453H2.76089C2.67182 10.4648 2.83511 11.3109 3.2062 12.0383L3.32495 12.2609C3.39917 12.3945 3.48823 12.5133 3.57729 12.6469C4.02261 12.6766 4.42339 12.6914 4.79448 12.6766C5.52182 12.6617 6.11557 12.5727 6.57573 12.4242C6.64995 12.3945 6.70932 12.4391 6.73901 12.4984C6.7687 12.5727 6.72417 12.632 6.66479 12.6617C6.60542 12.6766 6.54604 12.7062 6.47182 12.7211C6.11557 12.825 5.72964 12.8844 5.23979 12.9141H5.15073C4.95776 12.9289 4.74995 12.9289 4.52729 12.9289C4.28979 12.9289 4.06714 12.9289 3.79995 12.9141C4.69057 13.9234 6.08589 14.5172 7.83745 14.5172C11.5484 14.5172 14.6953 12.8695 16.0757 9.18828C17.0703 9.29219 18.0203 9.03984 18.4507 8.19375C17.7828 7.79297 16.8921 7.92656 16.3874 8.17891V8.17891Z" fill="#00AADA"/>
<path d="M16.3875 8.17891C16.5062 7.30312 15.8531 6.62031 15.4375 6.29375C14.9773 6.82813 14.9031 8.25312 15.6305 8.84687C15.2148 9.20312 14.3687 9.54453 13.4781 9.54453H3.38436C3.33983 10.9547 3.85936 12.0234 4.79452 12.6617C5.52186 12.6469 6.11561 12.5578 6.57577 12.4094C6.64998 12.3797 6.70936 12.4242 6.73905 12.4836C6.76874 12.5578 6.7242 12.6172 6.66483 12.6469C6.60545 12.6617 6.54608 12.6914 6.47186 12.7062C6.11561 12.8102 5.69998 12.8844 5.21014 12.9141L5.1953 12.8992C6.45702 13.5523 8.2828 13.5375 10.3906 12.7359C12.7359 11.8305 14.9328 10.1086 16.4617 8.14922C16.432 8.16406 16.4023 8.16406 16.3875 8.17891V8.17891Z" fill="#28B8EB"/>
<path d="M2.77576 10.6578C2.83513 11.1477 2.98357 11.6078 3.20623 12.0383L3.32498 12.2609C3.39919 12.3945 3.48826 12.5133 3.57732 12.6469C4.02263 12.6766 4.42341 12.6914 4.79451 12.6766C5.52185 12.6617 6.1156 12.5727 6.57576 12.4242C6.64998 12.3945 6.70935 12.4391 6.73904 12.4984C6.76873 12.5727 6.72419 12.632 6.66482 12.6617C6.60544 12.6766 6.54607 12.7062 6.47185 12.7211C6.1156 12.825 5.69998 12.8992 5.21013 12.9289H5.15076C4.95779 12.9437 4.74998 12.9437 4.54216 12.9437C4.30466 12.9437 4.06716 12.9437 3.81482 12.9289C4.70544 13.9383 6.1156 14.532 7.86716 14.532C11.0437 14.532 13.8047 13.3297 15.4078 10.6727H2.77576V10.6578Z" fill="#028BB8"/>
<path d="M3.48828 10.6578C3.68125 11.5188 4.12656 12.2016 4.79453 12.6617C5.52187 12.6469 6.11562 12.5578 6.57578 12.4094C6.65 12.3797 6.70938 12.4242 6.73906 12.4836C6.76875 12.5578 6.72422 12.6172 6.66484 12.6469C6.60547 12.6617 6.54609 12.6914 6.47187 12.7062C6.11562 12.8102 5.7 12.8844 5.19531 12.9141C6.45703 13.5672 8.28281 13.5523 10.3758 12.7508C11.6375 12.2609 12.8695 11.5336 13.968 10.6578H3.48828V10.6578Z" fill="#019BC6"/>
<path fill-rule="evenodd" clip-rule="evenodd" d="M4.21558 7.82266H5.67026V9.27734H4.21558V7.82266V7.82266ZM4.33433 7.94141H4.45308V9.14375H4.33433V7.94141ZM4.54214 7.94141H4.66089V9.14375H4.54214V7.94141ZM4.76479 7.94141H4.88355V9.14375H4.76479V7.94141ZM4.98745 7.94141H5.1062V9.14375H4.98745V7.94141ZM5.21011 7.94141H5.32886V9.14375H5.21011V7.94141ZM5.43276 7.94141H5.55151V9.14375H5.43276V7.94141ZM5.87808 6.16016H7.33276V7.61484H5.87808V6.16016ZM6.01167 6.27891H6.13042V7.48125H6.01167V6.27891ZM6.21948 6.27891H6.33823V7.48125H6.21948V6.27891ZM6.44214 6.27891H6.56089V7.48125H6.44214V6.27891ZM6.6648 6.27891H6.78355V7.48125H6.6648V6.27891ZM6.87261 6.27891H6.99136V7.48125H6.87261V6.27891ZM7.09526 6.27891H7.21401V7.48125H7.09526V6.27891Z" fill="#00ACD3"/>
<path fill-rule="evenodd" clip-rule="evenodd" d="M5.87817 7.82266H7.33286V9.27734H5.87817V7.82266V7.82266ZM6.01177 7.94141H6.13052V9.14375H6.01177V7.94141ZM6.21958 7.94141H6.33833V9.14375H6.21958V7.94141ZM6.44224 7.94141H6.56099V9.14375H6.44224V7.94141ZM6.66489 7.94141H6.78364V9.14375H6.66489V7.94141ZM6.87271 7.94141H6.99146V9.14375H6.87271V7.94141ZM7.09536 7.94141H7.21411V9.14375H7.09536V7.94141Z" fill="#23C2EE"/>
<path fill-rule="evenodd" clip-rule="evenodd" d="M7.55542 7.82266H9.01011V9.27734H7.55542V7.82266V7.82266ZM7.67417 7.94141H7.79292V9.14375H7.67417V7.94141ZM7.89683 7.94141H8.01558V9.14375H7.89683V7.94141ZM8.11948 7.94141H8.23823V9.14375H8.11948V7.94141ZM8.32729 7.94141H8.44604V9.14375H8.32729V7.94141ZM8.54995 7.94141H8.6687V9.14375H8.54995V7.94141ZM8.77261 7.94141H8.89136V9.14375H8.77261V7.94141Z" fill="#00ACD3"/>
<path fill-rule="evenodd" clip-rule="evenodd" d="M7.55542 6.16016H9.01011V7.61484H7.55542V6.16016V6.16016ZM7.67417 6.27891H7.79292V7.48125H7.67417V6.27891ZM7.89683 6.27891H8.01558V7.48125H7.89683V6.27891ZM8.11948 6.27891H8.23823V7.48125H8.11948V6.27891ZM8.32729 6.27891H8.44604V7.48125H8.32729V6.27891ZM8.54995 6.27891H8.6687V7.48125H8.54995V6.27891ZM8.77261 6.27891H8.89136V7.48125H8.77261V6.27891ZM9.23276 7.82266H10.6875V9.27734H9.23276V7.82266V7.82266ZM9.35151 7.94141H9.47026V9.14375H9.35151V7.94141V7.94141ZM9.57417 7.94141H9.69292V9.14375H9.57417V7.94141ZM9.78198 7.94141H9.90073V9.14375H9.78198V7.94141ZM10.0046 7.94141H10.1234V9.14375H10.0046V7.94141ZM10.2273 7.94141H10.346V9.14375H10.2273V7.94141ZM10.45 7.94141H10.5687V9.14375H10.45V7.94141Z" fill="#23C2EE"/>
<path fill-rule="evenodd" clip-rule="evenodd" d="M9.23279 6.16016H10.6875V7.61484H9.23279V6.16016ZM9.35154 6.27891H9.47029V7.48125H9.35154V6.27891ZM9.57419 6.27891H9.69294V7.48125H9.57419V6.27891ZM9.78201 6.27891H9.90076V7.48125H9.78201V6.27891ZM10.0047 6.27891H10.1234V7.48125H10.0047V6.27891ZM10.2273 6.27891H10.3461V7.48125H10.2273V6.27891ZM10.45 6.27891H10.5687V7.48125H10.45V6.27891Z" fill="#00ACD3"/>
<path fill-rule="evenodd" clip-rule="evenodd" d="M9.23279 4.48281H10.6875V5.9375H9.23279V4.48281ZM9.35154 4.60156H9.47029V5.80391H9.35154V4.60156ZM9.57419 4.60156H9.69294V5.80391H9.57419V4.60156ZM9.78201 4.60156H9.90076V5.80391H9.78201V4.60156ZM10.0047 4.60156H10.1234V5.80391H10.0047V4.60156ZM10.2273 4.60156H10.3461V5.80391H10.2273V4.60156ZM10.45 4.60156H10.5687V5.80391H10.45V4.60156Z" fill="#23C2EE"/>
<path fill-rule="evenodd" clip-rule="evenodd" d="M10.9102 7.82266H12.3648V9.27734H10.9102V7.82266ZM11.0289 7.94141H11.1477V9.14375H11.0289V7.94141ZM11.2367 7.94141H11.3555V9.14375H11.2367V7.94141ZM11.4594 7.94141H11.5781V9.14375H11.4594V7.94141ZM11.682 7.94141H11.8008V9.14375H11.682V7.94141ZM11.9047 7.94141H12.0234V9.14375H11.9047V7.94141ZM12.1273 7.94141H12.2461V9.14375H12.1273V7.94141Z" fill="#00ACD3"/>
<path fill-rule="evenodd" clip-rule="evenodd" d="M7.2438 11.6227C7.46646 11.6227 7.64458 11.8008 7.64458 12.0234C7.64458 12.2461 7.46646 12.4242 7.2438 12.4242C7.02114 12.4242 6.84302 12.2461 6.84302 12.0234C6.84302 11.8008 7.02114 11.6227 7.2438 11.6227Z" fill="#D4EEF1"/>
<path fill-rule="evenodd" clip-rule="evenodd" d="M7.2438 11.7414C7.27349 11.7414 7.31802 11.7414 7.34771 11.7563C7.31802 11.7711 7.28833 11.8156 7.28833 11.8602C7.28833 11.9195 7.34771 11.9789 7.40708 11.9789C7.45161 11.9789 7.49614 11.9492 7.51099 11.9195C7.52583 11.9492 7.52583 11.9938 7.52583 12.0234C7.52583 12.1867 7.39224 12.3055 7.2438 12.3055C7.08052 12.3055 6.96177 12.1719 6.96177 12.0234C6.96177 11.875 7.08052 11.7414 7.2438 11.7414M0.16333 10.8063H18.7774C18.3766 10.7023 17.5008 10.5688 17.6344 10.0344C16.8922 10.8805 15.1258 10.6281 14.6657 10.2125C14.161 10.9398 11.2516 10.6578 11.0586 10.0938C10.4352 10.8359 8.49067 10.8359 7.86724 10.0938C7.65942 10.6578 4.75005 10.9398 4.26021 10.2125C3.81489 10.6281 2.03364 10.8805 1.29146 10.0344C1.45474 10.5539 0.564111 10.7023 0.16333 10.8063" fill="#3A4D54"/>
<path d="M8.31245 14.5172C7.31792 14.0422 6.78354 13.4039 6.47183 12.7063C6.10073 12.8102 5.65542 12.8844 5.15073 12.9141C4.95776 12.9289 4.74995 12.9289 4.54214 12.9289C4.2898 12.9289 4.03745 12.9289 3.77026 12.9141C4.66089 13.8047 5.78901 14.5023 7.8523 14.5172H8.31245Z" fill="#BFDBE0"/>
<path d="M6.84294 13.3445C6.70935 13.1516 6.57576 12.9289 6.47185 12.7063C6.10076 12.8102 5.65544 12.8844 5.15076 12.9141C5.49216 13.0922 5.99685 13.2703 6.84294 13.3445V13.3445Z" fill="#D4EEF1"/>
</svg>
