<svg width="19" height="19" viewBox="0 0 19 19" fill="none" xmlns="http://www.w3.org/2000/svg">
<path d="M1.92966 8.19375L2.95388 7.6C2.98357 7.58516 3.01326 7.58516 3.04294 7.6L4.06716 8.19375C4.09685 8.20859 4.11169 8.23828 4.11169 8.26797V9.45547C4.11169 9.48516 4.09685 9.51484 4.06716 9.52969L3.04294 10.1234C3.01326 10.1383 2.98357 10.1383 2.95388 10.1234L1.92966 9.52969C1.89998 9.51484 1.88513 9.48516 1.88513 9.45547V8.26797C1.88513 8.23828 1.89998 8.20859 1.92966 8.19375" fill="#8080F2"/>
<path d="M5.65552 8.74297L4.43833 6.62031C4.3938 6.54609 4.30474 6.48672 4.23052 6.48672H1.76645C1.67739 6.48672 1.58833 6.54609 1.5438 6.62031L0.326611 8.72812C0.28208 8.80234 0.28208 8.90625 0.326611 8.98047L1.5438 11.0883C1.58833 11.1625 1.67739 11.207 1.76645 11.207H4.21567C4.30474 11.207 4.3938 11.1625 4.42349 11.0883L5.64067 8.98047C5.70005 8.90625 5.70005 8.81719 5.65552 8.74297ZM4.6313 9.76719C4.6313 9.79687 4.61645 9.82656 4.58677 9.84141L3.02817 10.7469C2.99849 10.7617 2.9688 10.7617 2.93911 10.7469L1.39536 9.84141C1.36567 9.82656 1.33599 9.79687 1.33599 9.76719V7.97109C1.33599 7.9414 1.35083 7.91172 1.38052 7.89687L2.93911 6.9914C2.9688 6.97656 2.99849 6.97656 3.02817 6.9914L4.58677 7.89687C4.61645 7.91172 4.6313 7.9414 4.6313 7.97109V9.76719Z" fill="#4B32C3"/>
<path d="M7.05078 7.27344H8.95078V7.62969H7.46641V8.66875H8.71328V9.025H7.46641V10.2273H8.99531V10.5836H7.05078V7.27344ZM9.20312 10.1531L9.44062 9.88594C9.67812 10.1383 10.0195 10.2867 10.3609 10.2867C10.7914 10.2867 11.0438 10.0641 11.0438 9.75234C11.0438 9.41094 10.8062 9.30703 10.4945 9.17344L10.0195 8.96563C9.70781 8.83203 9.35156 8.59453 9.35156 8.11953C9.35156 7.61485 9.78203 7.24375 10.3906 7.24375C10.7914 7.24375 11.1328 7.40703 11.3703 7.64453L11.1477 7.91172C10.9398 7.7336 10.6875 7.61485 10.3906 7.61485C10.0195 7.61485 9.78203 7.80781 9.78203 8.10469C9.78203 8.41641 10.0641 8.53516 10.3312 8.65391L10.8063 8.86172C11.1922 9.025 11.4891 9.24766 11.4891 9.7375C11.4891 10.257 11.0734 10.6727 10.3609 10.6727C9.88594 10.643 9.48516 10.45 9.20312 10.1531V10.1531ZM11.8602 7.27344H12.2758V10.2125H13.7156V10.5688H11.8602V7.27344ZM13.9383 7.3625C13.9383 7.19922 14.057 7.09531 14.2203 7.09531C14.3836 7.09531 14.5023 7.19922 14.5023 7.3625C14.5023 7.52578 14.3836 7.62969 14.2203 7.62969C14.057 7.62969 13.9383 7.52578 13.9383 7.3625ZM14.0125 8.13438H14.4281V10.5836H14.0125V8.13438V8.13438ZM14.9922 8.13438H15.3336L15.3633 8.49063H15.3781C15.6156 8.25313 15.868 8.075 16.1945 8.075C16.7141 8.075 16.9367 8.40156 16.9367 9.025V10.5688H16.5211V9.08438C16.5211 8.62422 16.3727 8.43125 16.0609 8.43125C15.8086 8.43125 15.6453 8.56485 15.393 8.80235V10.5688H14.9922V8.13438V8.13438ZM17.5453 9.81172V8.47578H17.1891V8.16406L17.575 8.13438L17.6195 7.34766H17.9609V8.13438H18.6141V8.47578H17.9609V9.82656C17.9609 10.1234 18.05 10.3016 18.332 10.3016C18.4211 10.3016 18.5102 10.2867 18.6141 10.2422L18.7031 10.5391C18.5695 10.5984 18.4063 10.643 18.243 10.643C17.7234 10.6281 17.5453 10.3016 17.5453 9.81172V9.81172Z" fill="#666666"/>
</svg>
