<svg width="19" height="19" viewBox="0 0 19 19" fill="none" xmlns="http://www.w3.org/2000/svg">
<path d="M18.8026 14.6122C18.1257 14.7844 17.7071 14.6196 17.3316 14.0555C16.4885 12.7923 15.5578 11.587 14.6597 10.3595C14.5439 10.2006 14.4237 10.0448 14.2738 9.84734C13.211 11.2812 12.1496 12.6469 11.1536 14.0674C10.7974 14.5751 10.4233 14.7962 9.75831 14.6166L13.7542 9.25359L10.0344 4.41007C10.6742 4.28539 11.1165 4.34922 11.5084 4.92218C12.3738 6.18687 13.3282 7.3907 14.2797 8.66429C15.2371 7.39515 16.1797 6.18984 17.0703 4.93703C17.4281 4.42937 17.8125 4.2364 18.4553 4.42343C17.9684 5.06914 17.4919 5.70445 17.0124 6.33531C16.3653 7.18586 15.7299 8.04679 15.059 8.87953C14.82 9.1764 14.8586 9.36937 15.0724 9.64992C16.3133 11.2812 17.5394 12.9289 18.8026 14.6122ZM0.197446 9.16453C0.304321 8.62867 0.375571 8.08242 0.524009 7.55695C1.41463 4.37593 5.0662 3.05336 7.57479 5.02461C9.04432 6.18093 9.40948 7.81078 9.33674 9.64844H1.05393C0.929243 12.9452 3.30276 14.9358 6.32792 13.9205C7.38924 13.5642 8.01417 12.733 8.32737 11.6939C8.4862 11.1729 8.74893 11.0912 9.23878 11.2397C8.98792 12.54 8.4194 13.6266 7.2319 14.3064C5.45065 15.3247 2.90792 14.9952 1.57049 13.5805C0.780806 12.7493 0.445337 11.7147 0.296899 10.597C0.274634 10.4188 0.228618 10.2437 0.192993 10.067C0.195962 9.7662 0.197446 9.46536 0.197446 9.16453V9.16453ZM1.06877 8.94336H8.55448C8.50549 6.55945 7.02112 4.86578 4.99198 4.85093C2.76542 4.83312 1.16526 6.48672 1.06877 8.94336V8.94336Z" fill="black"/>
</svg>
