<svg width="19" height="19" viewBox="0 0 19 19" fill="none" xmlns="http://www.w3.org/2000/svg">
<path d="M4.05972 11.9522L5.64503 1.79312C5.69996 1.44726 6.16457 1.36414 6.32785 1.67437L8.03191 4.86281L4.05972 11.9522V11.9522ZM15.3321 14.4207L13.8195 5.0632C13.7735 4.77227 13.4098 4.65351 13.2005 4.86281L3.66785 14.4207L8.94332 17.382C9.10657 17.4719 9.28987 17.519 9.47621 17.519C9.66254 17.519 9.84585 17.4719 10.0091 17.382L15.3321 14.4207V14.4207ZM11.0496 6.25664L9.828 3.93359C9.69144 3.66937 9.31738 3.66937 9.18082 3.93359L3.8148 13.5004L11.0496 6.25664V6.25664Z" fill="#F58220"/>
</svg>
