<svg width="19" height="19" viewBox="0 0 19 19" fill="none" xmlns="http://www.w3.org/2000/svg">
<path d="M18.5164 8.66548L10.335 0.4845C9.86412 0.0133594 9.09996 0.0133594 8.62838 0.4845L6.92981 2.18352L9.08482 4.33853C9.5858 4.16946 10.16 4.28287 10.5591 4.68202C10.7493 4.8724 10.8821 5.11249 10.9423 5.3748C11.0025 5.63712 10.9877 5.91108 10.8995 6.16535L12.9764 8.24259C13.4789 8.06936 14.0588 8.18128 14.4599 8.58325C15.021 9.1439 15.021 10.0528 14.4599 10.6137C14.3266 10.7471 14.1682 10.853 13.994 10.9252C13.8197 10.9974 13.633 11.0345 13.4444 11.0345C13.2557 11.0345 13.069 10.9974 12.8947 10.9252C12.7205 10.853 12.5622 10.7471 12.4288 10.6137C12.2285 10.4133 12.0919 10.158 12.0363 9.88014C11.9807 9.60225 12.0086 9.31412 12.1164 9.05201L10.1795 7.11505L10.1792 12.2125C10.3198 12.2817 10.4481 12.3734 10.5591 12.4839C11.12 13.0445 11.12 13.9531 10.5591 14.515C9.99816 15.0756 9.08898 15.0756 8.52863 14.515C7.96783 13.9533 7.92181 13.0447 8.48246 12.4839C8.6211 12.3454 8.75781 12.2407 8.90625 12.1707V7.02599C8.75781 6.95593 8.62125 6.85202 8.48231 6.71264C8.05763 6.28811 7.97822 5.66467 8.19613 5.14277L6.08341 3.01818L0.479305 8.62763C0.00801619 9.09922 0.0109849 9.86337 0.482274 10.3347L8.66504 18.5156C9.13603 18.9868 9.90078 18.9868 10.3725 18.5156L18.5158 10.3727C18.9871 9.90123 18.9875 9.13662 18.5164 8.66548V8.66548Z" fill="#F34F29"/>
</svg>
