<svg width="19" height="19" viewBox="0 0 19 19" fill="none" xmlns="http://www.w3.org/2000/svg">
<path d="M2.72981 14.3765L2.047 13.9821L9.65442 0.806609L10.3368 1.20086L2.72981 14.3765Z" fill="#E434AA"/>
<path d="M1.89026 12.9296H17.1045V13.7179H1.89026V12.9296Z" fill="#E434AA"/>
<path d="M9.80154 17.7662L2.19189 13.3727L2.58614 12.6896L10.1959 17.0837L9.80154 17.7662ZM16.4122 6.31498L8.80256 1.92093L9.19681 1.23856L16.8066 5.63187L16.4122 6.31498Z" fill="#E434AA"/>
<path d="M2.58788 6.31201L2.19348 5.62905L9.80387 1.23559L10.1981 1.91811L2.58788 6.31201Z" fill="#E434AA"/>
<path d="M16.2719 14.3765L8.66506 1.20086L9.34758 0.806609L16.955 13.9821L16.2719 14.3765ZM2.49377 5.10595H3.28242V13.894H2.49392L2.49377 5.10595Z" fill="#E434AA"/>
<path d="M15.7177 5.10595H16.5062V13.894H15.7177V5.10595Z" fill="#E434AA"/>
<path d="M9.66762 17.4326L9.32324 16.8359L15.9415 13.0144L16.2859 13.6111L9.66762 17.4326Z" fill="#E434AA"/>
<path d="M17.551 14.1503C17.0953 14.9435 16.0788 15.2143 15.2857 14.7585C14.4925 14.3023 14.2217 13.2858 14.6774 12.4925C15.1337 11.6993 16.1502 11.4285 16.9435 11.8844C17.7413 12.3453 18.0121 13.357 17.551 14.1503M4.3181 6.5075C3.8618 7.30075 2.8453 7.5715 2.05205 7.11565C1.2588 6.65935 0.988054 5.643 1.44391 4.84975C1.9002 4.0565 2.91655 3.78575 3.7098 4.24145C4.50305 4.7025 4.7738 5.71425 4.3181 6.5075ZM1.4491 14.1503C0.992656 13.357 1.26355 12.3452 2.05666 11.8842C2.84991 11.4285 3.86166 11.6993 4.3227 12.4925C4.77841 13.2858 4.50766 14.2975 3.71441 14.7585C2.91655 15.2143 1.9048 14.9435 1.4491 14.1503M14.682 6.5075C14.2263 5.71425 14.4971 4.7025 15.2903 4.24145C16.0836 3.78575 17.0953 4.0565 17.5562 4.84975C18.0119 5.643 17.7413 6.65475 16.9481 7.1158C16.1548 7.5715 15.1383 7.30075 14.682 6.5075ZM9.50005 18.8005C9.2823 18.8007 9.06665 18.7579 8.86543 18.6747C8.66421 18.5915 8.48139 18.4694 8.32741 18.3154C8.17344 18.1614 8.05134 17.9786 7.9681 17.7774C7.88485 17.5762 7.84211 17.3605 7.8423 17.1427C7.84211 16.925 7.88485 16.7093 7.9681 16.5081C8.05134 16.3069 8.17344 16.1241 8.32741 15.9701C8.48139 15.8161 8.66421 15.694 8.86543 15.6108C9.06665 15.5276 9.2823 15.4848 9.50005 15.485C9.71781 15.4848 9.93346 15.5276 10.1347 15.6108C10.3359 15.694 10.5187 15.8161 10.6727 15.9701C10.8267 16.1241 10.9488 16.3069 11.032 16.5081C11.1153 16.7093 11.158 16.925 11.1578 17.1427C11.1578 18.0549 10.4168 18.8005 9.50005 18.8005ZM9.50005 3.515C9.2823 3.5152 9.06665 3.47245 8.86543 3.38921C8.66421 3.30597 8.48139 3.18387 8.32741 3.02989C8.17344 2.87592 8.05134 2.69309 7.9681 2.49187C7.88485 2.29066 7.84211 2.075 7.8423 1.85725C7.84211 1.6395 7.88485 1.42384 7.9681 1.22263C8.05134 1.02141 8.17344 0.838583 8.32741 0.684608C8.48139 0.530633 8.66421 0.408531 8.86543 0.325291C9.06665 0.24205 9.2823 0.199305 9.50005 0.1995C9.71781 0.199305 9.93346 0.24205 10.1347 0.325291C10.3359 0.408531 10.5187 0.530633 10.6727 0.684608C10.8267 0.838583 10.9488 1.02141 11.032 1.22263C11.1153 1.42384 11.158 1.6395 11.1578 1.85725C11.158 2.075 11.1153 2.29066 11.032 2.49187C10.9488 2.69309 10.8267 2.87592 10.6727 3.02989C10.5187 3.18387 10.3359 3.30597 10.1347 3.38921C9.93346 3.47245 9.71781 3.5152 9.50005 3.515" fill="#E434AA"/>
</svg>
