<svg width="19" height="19" viewBox="0 0 19 19" fill="none" xmlns="http://www.w3.org/2000/svg">
<path d="M16.0347 2.375H9.17419C9.17419 4.085 10.5582 5.46962 12.2687 5.46962H13.5304V6.69067C13.5304 8.40067 14.915 9.7853 16.625 9.7853V2.96534C16.6249 2.80881 16.5627 2.65872 16.452 2.54804C16.3413 2.43735 16.1912 2.37512 16.0347 2.375V2.375Z" fill="#2684FF"/>
<path d="M12.6352 5.795H5.77454C5.77454 7.50485 7.15872 8.88948 8.86857 8.88948H10.1309V10.1105C10.1309 11.8205 11.5155 13.2052 13.2255 13.2052V6.38519C13.2253 6.22869 13.163 6.07868 13.0523 5.96802C12.9417 5.85736 12.7917 5.79509 12.6352 5.79485V5.795Z" fill="url(#paint0_linear_180_230)"/>
<path d="M9.23563 9.2147H2.375C2.375 10.9253 3.75903 12.3093 5.46962 12.3093H6.73134V13.531C6.73134 15.241 8.11597 16.625 9.82582 16.625V9.80563C9.82566 9.6491 9.76345 9.49901 9.65282 9.38827C9.54219 9.27753 9.39217 9.21517 9.23563 9.21485V9.2147Z" fill="url(#paint1_linear_180_230)"/>
<defs>
<linearGradient id="paint0_linear_180_230" x1="13.0827" y1="5.80272" x2="10.1638" y2="8.81244" gradientUnits="userSpaceOnUse">
<stop offset="0.176" stop-color="#0052CC"/>
<stop offset="1" stop-color="#2684FF"/>
</linearGradient>
<linearGradient id="paint1_linear_180_230" x1="9.88059" y1="9.24112" x2="6.50572" y2="12.5246" gradientUnits="userSpaceOnUse">
<stop offset="0.176" stop-color="#0052CC"/>
<stop offset="1" stop-color="#2684FF"/>
</linearGradient>
</defs>
</svg>
