<svg width="19" height="19" viewBox="0 0 19 19" fill="none" xmlns="http://www.w3.org/2000/svg">
<path fill-rule="evenodd" clip-rule="evenodd" d="M18.1541 8.70363C18.065 8.51081 18.0219 8.28266 18.0127 8.06788C17.9899 7.53929 18.0093 7.00877 17.9854 6.48019C17.9641 6.00682 17.7951 5.58021 17.3406 5.33618C16.9404 5.12139 16.4766 5.10002 16.0312 5.09497V5.93973C16.1797 5.94477 16.1432 5.94937 16.1794 5.9513C16.7774 5.9807 16.9778 6.1704 16.9854 6.7637C16.991 7.20486 16.9872 7.64631 16.9943 8.08732C17.0031 8.62244 17.0829 9.13321 17.5723 9.47106C17.5806 9.47684 17.5799 9.49807 17.5846 9.52271C17.3356 9.69965 17.1384 9.9275 17.0811 10.2385C17.0353 10.4911 17.0085 10.7468 17.001 11.0034C16.9867 11.4662 17.0014 11.9301 16.9882 12.3929C16.9778 12.7554 16.8061 12.9255 16.4533 13.0062C16.3204 13.0368 16.1797 13.0477 16.0312 13.0665V13.9092C16.3281 13.8914 16.4791 13.8796 16.6824 13.8577C17.4478 13.7749 17.8787 13.3766 17.967 12.6341C17.9946 12.4014 17.9915 12.1642 17.9967 11.929C18.0065 11.4883 18.0015 11.0455 18.0409 10.6075C18.0812 10.1605 18.4062 9.91355 18.8516 9.93819V9.05484C18.5547 9.10798 18.2811 8.97958 18.1541 8.70363V8.70363ZM4.20286 10.5046C4.20271 8.79032 4.15625 7.07602 4.15625 5.36186V5.09215C3.71094 5.09215 3.23208 5.08784 2.76227 5.09423C2.57153 5.09675 2.40335 5.11308 2.21424 5.13891C1.49031 5.23747 1.14134 5.57724 1.01309 6.2985C0.975977 6.50661 0.983398 6.72288 0.980281 6.93574C0.974492 7.34038 0.98607 7.74517 0.979539 8.14966C0.971375 8.6591 0.731352 9.05395 0.21182 9.08393C0.193414 9.08497 0.296875 9.1062 0.148438 9.11896V9.90642C0.742188 9.99964 0.931148 10.2394 0.970633 10.791C0.976867 10.8788 0.9785 10.9675 0.979391 11.0558C0.984438 11.5486 0.978797 12.0421 1.00106 12.5341C1.02199 12.9932 1.12397 13.4035 1.55785 13.6444C1.96309 13.8694 2.52344 13.8877 2.82031 13.8994V13.0586C2.82031 13.0515 2.78914 13.045 2.7602 13.0432C2.11612 13.0039 1.97095 12.829 1.96709 12.1845C1.96457 11.7577 1.98283 11.331 1.976 10.9042C1.96739 10.3681 1.88902 9.85952 1.40363 9.52019C1.3962 9.51499 1.40348 9.49302 1.4011 9.46334C1.72752 9.25701 1.90104 8.94143 1.94824 8.55876C1.97437 8.34768 1.98313 8.13363 1.98684 7.92063C1.99426 7.47932 1.98639 7.03757 1.99841 6.59656C2.00688 6.28662 2.20474 6.0607 2.45723 6.00994C2.69652 5.9617 2.82031 5.96318 3.26562 5.94077V6.24595C3.26562 7.77634 3.21115 9.30659 3.21916 10.837C3.22198 11.3611 3.28002 11.8778 3.84186 12.1042C4.14734 12.2272 4.47465 12.2651 4.82555 12.3479C4.88419 12.0047 4.90334 11.72 4.95128 11.4383C4.30454 11.2528 4.20286 11.1566 4.20286 10.5046ZM8.16228 7.55176C7.07275 7.03074 5.75047 7.4863 5.24311 8.57909C4.86103 9.40203 4.87469 10.249 5.21105 11.0835C5.39348 11.536 5.72316 11.8747 6.17188 12.0739C7.04826 12.463 7.93517 12.3684 8.81882 12.0953C8.86647 12.0804 8.92733 11.9887 8.92154 11.94C8.89141 11.6935 8.84138 11.4493 8.7967 11.1947C8.58637 11.2477 8.41062 11.3019 8.23101 11.3356C7.75645 11.4248 7.28086 11.4246 6.81907 11.241C6.36307 11.0599 6.05684 10.5389 6.13299 10.0936H9.23118C9.26903 9.64829 9.25404 9.03598 9.06448 8.52966C8.89527 8.07708 8.60314 7.76269 8.16228 7.55176V7.55176ZM8.15575 9.35156H6.11978C6.12082 8.75781 6.60428 8.22492 7.23855 8.23709C7.79564 8.24778 8.18098 8.75781 8.15575 9.35156ZM16.4843 11.1742C16.5573 10.424 16.3308 10.0019 15.6628 9.6759C15.4259 9.56027 15.1745 9.47462 14.9331 9.36745C14.7525 9.28729 14.5706 9.20609 14.4017 9.10456C14.2372 9.00585 14.1684 8.84198 14.1927 8.65005C14.2166 8.46049 14.3385 8.33551 14.5145 8.29988C14.7278 8.25654 14.9514 8.21943 15.1659 8.23695C15.469 8.26173 15.7679 8.33937 16.0807 8.39652L16.2784 7.53291C15.8552 7.46848 15.4607 7.38521 15.062 7.35374C14.6186 7.31886 14.1868 7.39248 13.7809 7.60163C12.9234 8.04353 12.9077 9.4001 13.6957 9.84541C13.9312 9.97841 14.1831 10.0823 14.428 10.1987C14.6858 10.3215 14.953 10.4282 15.1997 10.5704C15.387 10.6783 15.454 10.8667 15.4038 11.0862C15.3573 11.2903 15.2028 11.3813 15.0213 11.3987C14.7452 11.4249 14.462 11.4502 14.1887 11.4177C13.8596 11.3785 13.5375 11.2786 13.2004 11.2023L13.0285 12.0617C13.8201 12.3589 14.6034 12.4076 15.3943 12.2323C16.0562 12.0856 16.4332 11.6985 16.4843 11.1742V11.1742ZM12.2664 9.7712C11.9756 9.61697 11.6629 9.50445 11.3627 9.367C11.1765 9.28165 10.9792 9.20758 10.815 9.08927C10.4993 8.86172 10.5581 8.42546 10.9257 8.30879C11.1367 8.2417 11.3752 8.22091 11.5968 8.23754C11.8987 8.26025 12.1967 8.33833 12.5115 8.39533L12.6982 7.57209C12.5384 7.5286 12.3936 7.48125 12.2454 7.45008C11.6559 7.32598 11.0633 7.27789 10.4828 7.48199C9.98406 7.65745 9.63805 7.98549 9.56962 8.53738C9.49302 9.1537 9.69742 9.64027 10.2667 9.93299C10.4945 10.0503 10.7387 10.1353 10.9713 10.244C11.2035 10.3523 11.4405 10.4558 11.6562 10.5918C11.8211 10.6957 11.8861 10.8716 11.8397 11.0749C11.7935 11.2765 11.6466 11.378 11.4637 11.3969C11.1876 11.4252 10.9042 11.4515 10.6308 11.4196C10.3004 11.381 9.97723 11.2808 9.63419 11.2036C9.58357 11.443 9.5242 11.6843 9.48723 11.9287C9.47922 11.9819 9.53845 12.084 9.58832 12.1014C10.3875 12.3784 11.2009 12.4181 12.0138 12.1787C12.4992 12.0359 12.8387 11.7258 12.9071 11.1956C12.9847 10.5937 12.8412 10.0758 12.2664 9.7712V9.7712Z" fill="#2A4D80"/>
</svg>
