<svg width="19" height="19" viewBox="0 0 19 19" fill="none" xmlns="http://www.w3.org/2000/svg">
<path fill-rule="evenodd" clip-rule="evenodd" d="M13.0681 6.35491C13.3063 7.0441 13.4779 7.7477 13.5343 8.47697C13.6044 9.3817 13.5723 10.28 13.3816 11.1699C13.3764 11.1944 13.3654 11.2174 13.3573 11.2412C13.2974 11.2413 13.2364 11.2339 13.1779 11.243C12.6838 11.3206 12.1901 11.401 11.6964 11.481C11.1861 11.5637 10.675 11.6431 10.1656 11.7315C9.98505 11.7626 9.76165 11.7254 9.68877 11.975C9.68669 11.9819 9.66591 11.9831 9.65389 11.9869L9.67853 10.495L9.65344 6.89507L9.89124 6.85425C10.2801 6.79057 10.6691 6.726 11.0583 6.6641C11.5227 6.59033 11.9876 6.51863 12.4524 6.44664C12.6574 6.41473 12.8627 6.38548 13.0681 6.35491V6.35491Z" fill="#439934"/>
<path fill-rule="evenodd" clip-rule="evenodd" d="M9.16291 16.3361C8.91205 16.1205 8.65243 15.9143 8.41196 15.6875C7.11803 14.467 6.1716 13.0306 5.7055 11.2988C5.57711 10.8221 5.49146 10.3378 5.464 9.84527C5.4447 9.50059 5.41679 9.15281 5.44114 8.80991C5.506 7.89791 5.63782 6.99467 5.9053 6.11622L5.92 6.09573C5.94597 6.13032 5.98338 6.1609 5.99659 6.19994C6.25769 6.96884 6.51686 7.73834 6.7747 8.50829C7.58487 10.9278 8.394 13.3479 9.20551 15.7669C9.22139 15.8141 9.26251 15.8528 9.29205 15.8954L9.16291 16.3361V16.3361Z" fill="#45A538"/>
<path fill-rule="evenodd" clip-rule="evenodd" d="M13.0681 6.35491C12.8627 6.38548 12.6572 6.41473 12.4523 6.44634C11.9875 6.51834 11.5226 6.59003 11.0581 6.66381C10.6689 6.7257 10.28 6.79027 9.89111 6.85395L9.65331 6.89477L9.65153 6.73966C9.64367 6.61215 9.63016 6.48479 9.62867 6.35728C9.61843 5.54414 9.61205 4.731 9.60195 3.91786C9.59572 3.40887 9.58637 2.90002 9.57598 2.39118C9.5696 2.07501 9.56277 1.75869 9.54852 1.44296C9.5408 1.2733 9.51349 1.10452 9.50235 0.93486C9.49612 0.837336 9.50473 0.739071 9.50666 0.641102C9.62793 0.876078 9.74653 1.11284 9.87122 1.34603C10.0682 1.71475 10.382 1.98639 10.6645 2.28282C11.7812 3.45429 12.574 4.81635 13.0681 6.35491V6.35491Z" fill="#46A037"/>
<path fill-rule="evenodd" clip-rule="evenodd" d="M9.65378 11.9868C9.6658 11.9829 9.68673 11.9817 9.68866 11.9749C9.76154 11.7252 9.98494 11.7625 10.1654 11.7313C10.6749 11.6431 11.1859 11.5636 11.6963 11.4809C12.19 11.4009 12.6837 11.3204 13.1778 11.2428C13.2363 11.2336 13.2973 11.2412 13.3571 11.241C13.2648 11.5706 13.1921 11.9072 13.075 12.2277C12.942 12.5912 12.7811 12.946 12.6102 13.2938C12.3544 13.8125 12.0379 14.299 11.6672 14.743C11.3823 15.0856 11.0648 15.4022 10.7466 15.7149C10.5707 15.8879 10.3633 16.0287 10.1703 16.1841L10.1203 16.15L9.94011 15.9959L9.75367 15.5873C9.62633 15.1106 9.55685 14.6203 9.54675 14.1269L9.55017 14.0437L9.57555 13.6836C9.58401 13.5607 9.59529 13.4379 9.60049 13.3147C9.61964 12.8721 9.63626 12.4294 9.65378 11.9868V11.9868Z" fill="#409433"/>
<path fill-rule="evenodd" clip-rule="evenodd" d="M9.65375 11.9868C9.63623 12.4294 9.61961 12.8721 9.60076 13.3148C9.59556 13.438 9.58428 13.5608 9.57582 13.6837L9.46226 13.7266C9.21007 12.9841 8.95773 12.2495 8.71087 11.513C8.30267 10.2944 7.89937 9.07398 7.49176 7.85516C7.16254 6.87139 6.83103 5.88838 6.49723 4.90616C6.48164 4.86014 6.43681 4.82422 6.40564 4.78355L7.13239 3.44731C7.15733 3.49066 7.19028 3.53118 7.20602 3.57779C7.5426 4.57263 7.87748 5.56806 8.21064 6.56405C8.64348 7.85991 9.07366 9.15681 9.5062 10.4528C9.52342 10.5046 9.55192 10.5524 9.57908 10.6105L9.67854 10.4947L9.65375 11.9868V11.9868Z" fill="#4FAA41"/>
<path fill-rule="evenodd" clip-rule="evenodd" d="M6.40585 4.7837C6.43703 4.82437 6.48171 4.86029 6.49744 4.90631C6.83124 5.88853 7.16275 6.87154 7.49197 7.85531C7.89958 9.07413 8.30289 10.2946 8.71109 11.5131C8.95779 12.2495 9.21014 12.9843 9.46248 13.7268L9.57603 13.6839L9.55065 14.044L9.52764 14.1269C9.48816 14.5212 9.45491 14.9163 9.40681 15.3097C9.38262 15.5068 9.33126 15.7004 9.29222 15.8956C9.26283 15.853 9.22156 15.8142 9.20568 15.767C8.39417 13.3479 7.58504 10.928 6.77487 8.50844C6.51712 7.73844 6.25775 6.96899 5.99676 6.20009C5.98355 6.16105 5.94629 6.13047 5.92017 6.09588L6.40585 4.7837V4.7837Z" fill="#4AA73C"/>
<path fill-rule="evenodd" clip-rule="evenodd" d="M9.67847 10.4948L9.57902 10.6106C9.55185 10.5526 9.52336 10.5046 9.50614 10.453C9.07374 9.15696 8.64342 7.86006 8.21057 6.5642C7.87741 5.56821 7.54254 4.57278 7.20595 3.57794C7.19036 3.53133 7.15741 3.49066 7.13232 3.44746L8.03111 2.26516C8.05946 2.30301 8.09984 2.3367 8.11454 2.3793C8.36406 3.10977 8.61136 3.84112 8.85717 4.57291C9.0868 5.25632 9.31302 5.94076 9.54532 6.62328C9.56091 6.669 9.61509 6.70136 9.65131 6.73995L9.65309 6.89507C9.6617 8.09474 9.67016 9.29486 9.67847 10.4948V10.4948Z" fill="#57AE47"/>
<path fill-rule="evenodd" clip-rule="evenodd" d="M9.65157 6.73966C9.61535 6.70106 9.56117 6.6687 9.54558 6.62298C9.31328 5.94047 9.08706 5.25602 8.85743 4.57262C8.61161 3.84082 8.36432 3.10962 8.11479 2.37901C8.1001 2.33641 8.05972 2.30271 8.03137 2.26486C8.32365 1.97867 8.60686 1.68224 8.91086 1.40927C9.18117 1.16672 9.39848 0.906656 9.40843 0.523391C9.40887 0.507508 9.41718 0.491625 9.42995 0.447094L9.50699 0.640953C9.50506 0.73907 9.4963 0.837188 9.50268 0.934711C9.51382 1.10438 9.54113 1.27315 9.54885 1.44281C9.5631 1.75854 9.56993 2.07486 9.57631 2.39103C9.58655 2.89988 9.5959 3.40872 9.60229 3.91771C9.61223 4.73085 9.61876 5.54399 9.629 6.35713C9.63019 6.48494 9.64355 6.61215 9.65157 6.73966V6.73966Z" fill="#60B24F"/>
<path fill-rule="evenodd" clip-rule="evenodd" d="M9.29186 15.8954C9.3309 15.7002 9.38226 15.5065 9.40645 15.3095C9.4547 14.9163 9.4878 14.521 9.52728 14.1268L9.53708 14.1253L9.54688 14.1269C9.55698 14.6203 9.62645 15.1106 9.7538 15.5873C9.72767 15.6217 9.69071 15.6524 9.67691 15.6913C9.56899 15.9956 9.46731 16.3023 9.35881 16.6066C9.34396 16.6482 9.3027 16.6805 9.2736 16.717L9.16272 16.3361L9.29186 15.8954V15.8954Z" fill="#A9AA88"/>
<path fill-rule="evenodd" clip-rule="evenodd" d="M9.2738 16.7172C9.3029 16.6807 9.34431 16.6483 9.35901 16.6067C9.46751 16.3024 9.56934 15.9959 9.67711 15.6915C9.69091 15.6526 9.72772 15.6219 9.754 15.5874L9.94029 15.9962C9.90348 16.0485 9.85271 16.0955 9.83222 16.1537L9.47538 17.2015C9.46069 17.2435 9.41051 17.2732 9.37697 17.3087L9.2738 16.7172V16.7172Z" fill="#B6B598"/>
<path fill-rule="evenodd" clip-rule="evenodd" d="M9.37695 17.3086C9.41065 17.2732 9.46067 17.2434 9.47537 17.2014L9.83221 16.1536C9.85255 16.0955 9.90346 16.0483 9.94027 15.9961L10.1206 16.15C10.0335 16.2361 9.9851 16.3355 10.0142 16.4613L9.95942 16.6406C9.93448 16.6713 9.89841 16.698 9.88609 16.7332C9.76155 17.0899 9.64266 17.4485 9.51723 17.8052C9.50134 17.8505 9.45726 17.886 9.42609 17.9258C9.40991 17.7199 9.39343 17.5144 9.37695 17.3086V17.3086Z" fill="#C2C1A7"/>
<path fill-rule="evenodd" clip-rule="evenodd" d="M9.42622 17.9258C9.45725 17.8858 9.50133 17.8504 9.51736 17.8052C9.64279 17.4487 9.76169 17.0901 9.88623 16.7332C9.89855 16.6982 9.93447 16.6713 9.95956 16.6406L9.88401 17.4637C9.86382 17.487 9.83458 17.5073 9.82493 17.5345C9.73958 17.7741 9.65912 18.0154 9.57347 18.255C9.55581 18.3044 9.52197 18.3481 9.49554 18.3942C9.47209 18.3635 9.43008 18.3338 9.42815 18.3017C9.42058 18.1769 9.42578 18.0512 9.42622 17.9258V17.9258Z" fill="#CECDB7"/>
<path fill-rule="evenodd" clip-rule="evenodd" d="M9.49536 18.3942C9.52178 18.3479 9.55563 18.3043 9.57329 18.255C9.65909 18.0156 9.73939 17.7742 9.82474 17.5345C9.83439 17.5073 9.86378 17.4871 9.88382 17.4637L9.8856 18.004L9.70481 18.4677L9.49536 18.3942V18.3942Z" fill="#DBDAC7"/>
<path fill-rule="evenodd" clip-rule="evenodd" d="M9.70483 18.4679L9.88563 18.0041L9.92289 18.5528L9.70483 18.4679V18.4679Z" fill="#EBE9DC"/>
<path fill-rule="evenodd" clip-rule="evenodd" d="M10.0142 16.4614C9.98513 16.3357 10.0334 16.2361 10.1207 16.1501L10.1707 16.1843L10.0142 16.4614V16.4614Z" fill="#CECDB7"/>
<path fill-rule="evenodd" clip-rule="evenodd" d="M9.54694 14.1271L9.53714 14.1255L9.52734 14.1269L9.55035 14.044L9.54694 14.1271V14.1271Z" fill="#4FAA41"/>
</svg>
