<svg width="19" height="19" viewBox="0 0 19 19" fill="none" xmlns="http://www.w3.org/2000/svg">
<path d="M17.3594 14.5182C16.3407 14.4905 15.5627 14.5853 14.8976 14.8657C14.7086 14.9454 14.407 14.9477 14.3761 15.1844C14.48 15.2932 14.4962 15.4559 14.5787 15.5898C14.7376 15.8466 15.0056 16.1913 15.2449 16.3718C15.5065 16.5692 15.7759 16.7801 16.0561 16.951C16.5546 17.2548 17.1111 17.4285 17.591 17.7329C17.8739 17.9125 18.1549 18.1386 18.4308 18.3411C18.5674 18.4413 18.659 18.597 18.8364 18.6598V18.631C18.7431 18.5122 18.7191 18.3492 18.6336 18.2253L18.257 17.8487C17.8889 17.3601 17.4215 16.9308 16.9246 16.5744C16.5285 16.29 15.6418 15.9058 15.4766 15.4449L15.4477 15.416C15.7285 15.3842 16.0573 15.2827 16.3166 15.2131C16.7522 15.0964 17.1414 15.1265 17.591 15.0104L18.1991 14.8366V14.7208C17.9719 14.4876 17.8098 14.1789 17.562 13.9678C16.9134 13.4156 16.2056 12.8639 15.4768 12.4037C15.0724 12.1487 14.5729 11.9829 14.1444 11.7666C14.0003 11.6938 13.747 11.6559 13.6519 11.5348C13.4267 11.248 13.3042 10.8843 13.1307 10.5502C12.7672 9.85002 12.4102 9.08541 12.0881 8.34872C11.8684 7.84641 11.7249 7.35122 11.4509 6.90056C10.1357 4.73827 8.7202 3.43336 6.52733 2.15056C6.06065 1.87773 5.49881 1.77012 4.90506 1.6291C4.58666 1.60995 4.26797 1.59051 3.94942 1.57106C3.75482 1.49002 3.55265 1.25207 3.37022 1.13659C2.64376 0.677617 0.780279 -0.320625 0.242341 0.991859C-0.0974323 1.82029 0.750146 2.62838 1.05311 3.04831C1.26597 3.34252 1.53835 3.67279 1.69035 4.00395C1.7904 4.22171 1.80761 4.44006 1.89326 4.67029C2.1036 5.23762 2.28692 5.85482 2.5593 6.37895C2.6969 6.64436 2.84861 6.92372 3.02272 7.16092C3.1293 7.30654 3.31233 7.37066 3.34112 7.5954C3.1624 7.84566 3.15216 8.23427 3.05167 8.55134C2.59893 9.97856 2.76979 11.7527 3.42826 12.809C3.63013 13.1335 4.10617 13.8289 4.76048 13.562C5.33286 13.3289 5.20505 12.6064 5.36878 11.969C5.40574 11.8245 5.38303 11.7183 5.45561 11.6215V11.6504L5.97708 12.693C6.36301 13.3145 7.04761 13.964 7.628 14.4021C7.92888 14.6294 8.16579 15.0222 8.55484 15.1552V15.1261H8.5259C8.45049 15.0087 8.33248 14.96 8.23629 14.8656C8.00963 14.6434 7.75758 14.3671 7.57026 14.1125C7.04241 13.396 6.57602 12.6118 6.15104 11.7956C5.94798 11.4056 5.77149 10.9758 5.60049 10.579C5.53458 10.4261 5.53547 10.1947 5.39802 10.1156C5.21054 10.4062 4.9346 10.6413 4.78972 10.9845C4.55801 11.5331 4.52818 12.2023 4.44223 12.8961C4.39147 12.9142 4.41403 12.9017 4.38419 12.9249C3.98074 12.8277 3.83913 12.4125 3.68906 12.0561C3.30995 11.1551 3.23944 9.70455 3.57313 8.66741C3.65952 8.39889 4.04961 7.55398 3.89168 7.30595C3.81627 7.05865 3.56749 6.91556 3.4284 6.72659C3.25607 6.49295 3.08418 6.18539 2.96468 5.91553C2.65445 5.21327 2.50958 4.42462 2.18286 3.7145C2.02656 3.37502 1.76249 3.03139 1.54562 2.72977C1.3056 2.39534 1.03663 2.14908 0.85049 1.74488C0.784286 1.6012 0.694482 1.37112 0.792451 1.22342C0.823622 1.12382 0.867857 1.08226 0.966271 1.04975C1.1343 0.920164 1.60218 1.0928 1.77704 1.16538C2.2415 1.35835 2.62922 1.54212 3.02272 1.80277C3.21139 1.92805 3.40258 2.17016 3.63087 2.23725H3.89153C4.29929 2.33091 4.75603 2.2662 5.13707 2.38198C5.81038 2.58652 6.41378 2.90492 6.96166 3.25093C8.63099 4.30513 9.99602 5.80554 10.9297 7.59555C11.0799 7.88381 11.1449 8.15872 11.2772 8.4645C11.5441 9.08096 11.8803 9.71523 12.1458 10.3182C12.4109 10.9197 12.6692 11.5266 13.0439 12.0271C13.2409 12.2902 14.0015 12.4313 14.3473 12.5776C14.5896 12.6798 14.9866 12.7867 15.2163 12.9249C15.6546 13.1894 16.0794 13.5043 16.4908 13.794C16.696 13.9387 17.3279 14.2565 17.3594 14.5182V14.5182ZM4.41284 3.48323C4.20043 3.47923 4.05021 3.50639 3.89138 3.54098V3.56992H3.92033C4.02171 3.77803 4.20058 3.91222 4.32571 4.09138C4.42219 4.2943 4.51883 4.49691 4.61546 4.69953L4.64426 4.67088C4.82372 4.54427 4.9058 4.34224 4.90476 4.03349C4.83292 3.95794 4.82238 3.86323 4.76004 3.77298C4.67751 3.6526 4.51734 3.58417 4.41284 3.48323Z" fill="#00618A"/>
</svg>
