<svg width="19" height="19" viewBox="0 0 19 19" fill="none" xmlns="http://www.w3.org/2000/svg">
<path d="M16.7256 4.50271L10.1732 0.701963C9.76036 0.466838 9.2196 0.466838 8.80353 0.701963L2.19984 4.50271C1.77398 4.74778 1.48438 5.20838 1.48438 5.70104V13.2924C1.48438 13.7851 1.78006 14.2458 2.20608 14.4923L3.9471 15.485C4.78236 15.8965 5.01377 15.8965 5.39377 15.8965C6.63085 15.8965 7.27329 15.1485 7.27329 13.8439V6.34927C7.27344 6.24343 7.33949 6.08594 7.23544 6.08594H6.40092C6.29523 6.08594 6.08594 6.24343 6.08594 6.34912V13.8437C6.08594 14.422 5.54919 14.9975 4.57158 14.5087L2.77222 13.4677C2.70958 13.4336 2.67188 13.3649 2.67188 13.2924V5.70104C2.67188 5.62949 2.7406 5.55765 2.80413 5.52099L9.39149 1.72678C9.42383 1.7096 9.45989 1.70061 9.49651 1.70061C9.53313 1.70061 9.56919 1.7096 9.60153 1.72678L16.1273 5.5201C16.1898 5.55765 16.1798 5.62727 16.1798 5.70104V13.2924C16.1798 13.3649 16.1935 13.4354 16.1319 13.4703L9.5809 17.2667C9.52479 17.3004 9.45176 17.3004 9.39016 17.2667L7.71029 16.2649C7.65967 16.2355 7.59866 16.225 7.54998 16.2521C7.08314 16.5168 6.99645 16.552 6.55856 16.7038C6.45065 16.7414 6.29152 16.8065 6.61912 16.9902L8.8157 18.2896C9.0254 18.4107 9.26331 18.4745 9.50549 18.4745C9.74862 18.4749 9.98754 18.4111 10.1981 18.2896L16.7258 14.4923C17.152 14.2441 17.3673 13.7851 17.3673 13.2924V5.70104C17.3672 5.20838 17.1518 4.74896 16.7256 4.50271V4.50271ZM11.5376 12.0895C9.79687 12.0895 9.41361 11.6093 9.2858 10.7438C9.27066 10.6505 9.1917 10.5391 9.0967 10.5391H8.24615C8.14091 10.5391 8.05615 10.6667 8.05615 10.7715C8.05615 11.8798 8.6588 13.2225 11.5376 13.2225C13.6214 13.2225 14.8163 12.4128 14.8163 10.9798C14.8163 9.55893 13.8563 9.18606 11.8354 8.91857C9.79257 8.64856 9.58505 8.51215 9.58505 8.03359C9.58505 7.63904 9.7608 7.11283 11.2734 7.11283C12.6248 7.11283 13.1229 7.40288 13.3279 8.31384C13.3456 8.39949 13.4238 8.46094 13.5121 8.46094H14.3662C14.4188 8.46094 14.4688 8.43971 14.5056 8.40216C14.5414 8.36178 14.5601 8.31117 14.5555 8.25684C14.4229 6.688 13.3809 5.95695 11.2732 5.95695C9.39817 5.95695 8.27984 6.74871 8.27984 8.07589C8.27984 9.51544 9.39268 9.91325 11.1925 10.0912C13.3456 10.3023 13.513 10.617 13.513 11.0405C13.513 11.7761 12.9225 12.0895 11.5376 12.0895Z" fill="#83CD29"/>
</svg>
