<svg width="19" height="19" viewBox="0 0 19 19" fill="none" xmlns="http://www.w3.org/2000/svg">
<path fill-rule="evenodd" clip-rule="evenodd" d="M18.2961 11.3976C18.2293 10.9645 17.8655 10.6808 17.4423 10.6617C17.2891 10.6547 17.1335 10.6707 16.9808 10.6902C16.7963 10.7136 16.614 10.7552 16.43 10.7826C16.3027 10.8016 16.1737 10.8104 16.0467 10.8235L16.0436 10.807C16.2808 10.359 16.5279 9.91592 16.7524 9.46155C16.9244 9.11302 17.0716 8.75188 17.2238 8.3937C17.4755 7.80024 17.6767 7.18838 17.8432 6.56658C18.0028 5.9712 18.1394 5.36928 18.1823 4.75163C18.1995 4.50493 18.2114 4.25719 18.21 4.01019C18.2088 3.81321 18.1876 3.61594 18.1679 3.41955C18.1456 3.19452 18.0776 2.98122 17.9835 2.77593C17.8594 2.50548 17.667 2.28356 17.4646 2.07278C17.3025 1.90401 17.1242 1.75023 16.9474 1.59659C16.6954 1.37735 16.412 1.20234 16.1176 1.04693C15.7842 0.869744 15.4309 0.73272 15.0652 0.638727C14.8436 0.582172 14.6169 0.540164 14.3925 0.495336C14.3117 0.479008 14.2309 0.445312 14.1501 0.445312H12.63C12.575 0.445312 12.5206 0.473664 12.4652 0.479898C12.1012 0.520422 11.7416 0.589 11.3923 0.697211C11.2617 0.737734 11.1423 0.712203 11.0182 0.700773C10.9231 0.692016 10.8296 0.666484 10.7344 0.661734C10.3719 0.643625 10.009 0.617055 9.64666 0.620914C9.29946 0.624477 8.95583 0.681625 8.61977 0.77707C8.33848 0.85693 8.06327 0.954453 7.81123 1.1023C7.70331 1.16553 7.61781 1.15366 7.50619 1.12145C7.13109 1.01323 6.75331 0.911555 6.37227 0.826203C6.13477 0.773062 5.89059 0.746641 5.64805 0.721258C5.4153 0.697069 5.18166 0.68251 4.94772 0.677617C4.71942 0.672719 4.48949 0.672867 4.26223 0.693055C3.90026 0.724523 3.54346 0.79994 3.19972 0.917641C2.81902 1.04763 2.4633 1.24165 2.14789 1.49135C1.82623 1.74592 1.56824 2.05675 1.36073 2.41166C1.14208 2.78617 0.992156 3.1871 0.898938 3.60822C0.848469 3.83637 0.816555 4.0709 0.781969 4.30261C0.771133 4.37475 0.890625 4.44689 0.742188 4.51873V5.52722C0.890625 5.59431 0.773062 5.66126 0.781672 5.7285C0.802305 5.89015 0.820562 6.05313 0.847875 6.21359C0.89107 6.46757 0.942281 6.7208 0.994531 6.97315C1.06708 7.32584 1.14358 7.67771 1.22402 8.02869C1.2828 8.284 1.34974 8.53783 1.4198 8.79032C1.52683 9.17596 1.63222 9.56234 1.7532 9.94368C1.86556 10.298 1.99426 10.6473 2.12191 10.9965C2.2987 11.4797 2.51037 11.9473 2.7642 12.3954C2.98374 12.7834 3.2346 13.1468 3.57111 13.4458C3.79288 13.6427 4.03973 13.7941 4.3271 13.8699C4.55287 13.9292 4.78236 13.9364 5.01348 13.889C5.27679 13.8354 5.52278 13.7176 5.72954 13.546C5.75373 13.5261 5.7803 13.5109 5.80895 13.5474C5.91805 13.6856 6.06412 13.7778 6.21686 13.8575C6.62907 14.0725 7.07824 14.1369 7.53454 14.1632C7.64498 14.1695 7.7566 14.1537 7.86793 14.1505C8.0848 14.1446 8.29558 14.1023 8.50295 14.0423C8.6116 14.0109 8.71773 13.9709 8.82832 13.9337C8.83411 14.0514 8.84153 14.1648 8.84495 14.2782L8.86038 14.8966C8.8632 14.9907 8.86691 15.0851 8.87567 15.1788C8.89809 15.4203 8.92005 15.6619 8.94885 15.9027C8.96889 16.0687 8.98967 16.2359 9.02871 16.3979C9.10697 16.7248 9.21417 17.0441 9.34904 17.352C9.47815 17.6509 9.6766 17.9148 9.92795 18.1217C10.2575 18.3942 10.6437 18.5105 11.0608 18.532C11.2333 18.541 11.4107 18.5326 11.5805 18.5017C11.8504 18.4537 12.1174 18.3905 12.3801 18.3124C12.9132 18.1515 13.3739 17.8737 13.7181 17.4246C13.9141 17.1687 14.075 16.8919 14.1783 16.5863C14.2635 16.3338 14.3438 16.0788 14.4076 15.8203C14.4581 15.6167 14.483 15.4066 14.5138 15.1987C14.5341 15.0611 14.5463 14.9221 14.559 14.7835C14.5798 14.5583 14.6011 14.3333 14.616 14.1076C14.6264 13.9506 14.626 13.7928 14.6322 13.6355C14.6342 13.5875 14.6419 13.5399 14.6463 13.4921C14.6505 13.4478 14.6728 13.4326 14.7179 13.4333C14.8769 13.4357 15.0361 13.4398 15.1947 13.4327C15.3723 13.4247 15.5516 13.4171 15.7265 13.3877C15.9757 13.3461 16.2228 13.2933 16.4672 13.2293C16.7556 13.1539 17.0201 13.0189 17.2747 12.8649C17.5713 12.6858 17.8416 12.4756 18.061 12.2048C18.2517 11.9687 18.3421 11.6957 18.2961 11.3976V11.3976ZM17.7896 11.5434C17.7798 11.6792 17.7176 11.7956 17.6274 11.895C17.2015 12.3645 16.6673 12.6494 16.0562 12.7897C15.824 12.8428 15.5845 12.8704 15.3468 12.8924C15.1438 12.9102 14.9398 12.9151 14.7361 12.9068C14.5868 12.9011 14.4387 12.867 14.2861 12.845C14.2708 12.9846 14.2562 13.1299 14.2386 13.2749L14.1675 13.8308C14.1459 14.007 14.1292 14.1838 14.1071 14.3598C14.0854 14.5307 14.0584 14.701 14.0357 14.8718C14.0144 15.0309 13.9988 15.1908 13.9752 15.3496C13.9389 15.5931 13.9041 15.8371 13.8566 16.0786C13.7996 16.3673 13.7122 16.647 13.5696 16.9073C13.3956 17.2251 13.1489 17.4672 12.8349 17.6465C12.5114 17.8315 12.1576 17.9277 11.799 18.0081C11.5452 18.0651 11.2836 18.0745 11.0265 18.0513C10.5806 18.011 10.2 17.8202 9.91236 17.4745C9.63775 17.1445 9.45191 16.7663 9.38541 16.3382C9.35436 16.1344 9.33006 15.9297 9.31252 15.7243C9.29283 15.496 9.27804 15.2674 9.26814 15.0385C9.25498 14.7481 9.24524 14.4576 9.2389 14.167C9.23103 13.8099 9.22851 13.4527 9.22346 13.0956L9.22257 13.0819C9.04088 13.1909 8.86231 13.3102 8.67291 13.4085C8.45156 13.523 8.20926 13.5913 7.9607 13.6093C7.76506 13.6242 7.5669 13.6377 7.37215 13.6221C7.05286 13.5964 6.73387 13.5464 6.44798 13.3892C6.33205 13.3254 6.21107 13.2477 6.13121 13.1458C5.93973 12.9014 6.03146 12.5927 6.32017 12.4441C6.51967 12.3412 6.73743 12.2983 6.9537 12.2483C7.14194 12.2056 7.32821 12.1546 7.51198 12.0956C7.69337 12.0362 7.80781 11.8891 7.92077 11.7448L8.09979 11.5146C8.02513 11.5067 7.95477 11.4987 7.88441 11.4922C7.6708 11.472 7.467 11.4132 7.2721 11.3268C7.10526 11.253 7.10273 11.245 6.98042 11.3777C6.77617 11.5995 6.57756 11.8265 6.37747 12.0519C6.23022 12.2177 6.08386 12.3846 5.93735 12.5508C5.79218 12.7153 5.65621 12.8891 5.49991 13.0422C5.26775 13.2694 4.98795 13.4061 4.65411 13.3907C4.43991 13.3809 4.24383 13.3058 4.06748 13.183C3.70352 12.9295 3.4583 12.5749 3.23505 12.2025C2.94901 11.7252 2.72947 11.2168 2.54155 10.6945C2.41152 10.3335 2.28089 9.97218 2.16734 9.60598C2.04398 9.20802 1.93577 8.80502 1.82934 8.40216C1.74984 8.09779 1.6765 7.79185 1.60936 7.48452C1.53107 7.13549 1.45862 6.78518 1.39205 6.43373C1.34781 6.19637 1.32213 5.95561 1.28636 5.71663C1.23812 5.39452 1.22921 5.06944 1.24673 4.74599C1.26231 4.45461 1.30417 4.16397 1.34573 3.87452C1.40333 3.47403 1.53529 3.09611 1.72514 2.73927C1.84137 2.52062 1.98565 2.32186 2.15249 2.1372C2.42636 1.83409 2.75782 1.615 3.12654 1.45053C3.38423 1.33564 3.65646 1.26647 3.93389 1.21244C4.34566 1.13228 4.76113 1.1354 5.17676 1.14401C5.35845 1.14772 5.53939 1.18082 5.72093 1.19878C6.11177 1.23767 6.49488 1.31991 6.8731 1.42144C7.14875 1.49536 7.41876 1.5911 7.69218 1.67423C7.71964 1.68254 7.75987 1.6818 7.78228 1.6671C8.15278 1.4253 8.55772 1.26573 8.98834 1.17444C9.15177 1.13985 9.32039 1.12471 9.48753 1.11402C9.69074 1.10111 9.89559 1.08923 10.0984 1.10096C10.3421 1.11491 10.5846 1.15084 10.8269 1.18409C10.9444 1.20012 11.0592 1.24094 11.177 1.25207C11.2335 1.25741 11.2933 1.21615 11.3529 1.20234C11.6571 1.13213 11.9599 1.05391 12.2667 0.998391C12.4952 0.957125 12.7285 0.93768 12.9608 0.92432C13.2198 0.909477 13.4808 0.898641 13.7397 0.911109C14.0675 0.927343 14.3931 0.973199 14.7127 1.04812C15.11 1.14059 15.4912 1.27493 15.8536 1.46137C16.1243 1.6006 16.3817 1.7621 16.6134 1.96071C16.7653 2.09104 16.9207 2.21973 17.0578 2.36491C17.2271 2.54392 17.3997 2.72309 17.5058 2.95242C17.5857 3.12535 17.6427 3.30437 17.6584 3.49377C17.678 3.7292 17.7018 3.96551 17.6995 4.20123C17.6975 4.4267 17.6667 4.65203 17.6449 4.87691C17.5953 5.38962 17.4839 5.89119 17.3485 6.38608C17.2352 6.79488 17.1071 7.1994 16.9642 7.59881C16.8337 7.96709 16.6832 8.32868 16.531 8.68879C16.419 8.95553 16.2973 9.21809 16.1662 9.47595C15.9172 9.96372 15.6584 10.4464 15.359 10.9059C15.3073 10.9853 15.2583 11.0666 15.2079 11.1477C15.3385 11.2358 15.4865 11.2669 15.6355 11.2829C15.7773 11.2983 15.9219 11.3075 16.0635 11.297C16.2901 11.2802 16.516 11.2479 16.7414 11.2162C16.9646 11.1851 17.1834 11.1215 17.4126 11.1383C17.6415 11.1549 17.8052 11.3289 17.7896 11.5434V11.5434ZM14.5221 11.0457C14.4249 10.9201 14.3257 10.796 14.2306 10.6689C14.0812 10.4694 13.9739 10.2466 13.8661 10.0228C13.764 9.81068 13.6387 9.60984 13.5311 9.4001C13.3433 9.0342 13.1522 8.66949 12.9792 8.29647C12.7618 7.82785 12.5903 7.34261 12.5363 6.82352C12.5134 6.60384 12.5076 6.38445 12.552 6.16684C12.6231 5.81934 12.8047 5.54755 13.1099 5.36112C13.3929 5.18819 13.7084 5.13238 14.0315 5.11486C14.232 5.10402 14.4335 5.11293 14.6416 5.11293L14.6346 5.07775C14.5052 4.80715 14.3842 4.53195 14.2426 4.26773C14.0428 3.89485 13.7872 3.55864 13.5025 3.24692C13.2915 3.0161 13.0631 2.80191 12.8128 2.61265C12.5667 2.42636 12.3074 2.25996 12.0307 2.12384C11.7007 1.9616 11.3571 1.83617 10.9965 1.75616C10.6501 1.67927 10.3014 1.63222 9.94605 1.62836C9.64294 1.62509 9.34177 1.63875 9.04652 1.70718C8.60091 1.81034 8.1933 1.99381 7.83869 2.29098C7.64249 2.45553 7.46717 2.64346 7.31663 2.85059C7.1391 3.09448 6.99586 3.3578 6.8734 3.6339C6.70537 4.01271 6.59003 4.40696 6.51121 4.8122C6.47173 5.01422 6.44085 5.21802 6.40938 5.42168C6.3984 5.49293 6.39751 5.56581 6.39112 5.64745C6.4459 5.61895 6.48538 5.59698 6.52576 5.57739L6.65712 5.51846C7.1014 5.31525 7.5617 5.18448 8.05645 5.19947C8.26663 5.20585 8.46777 5.24741 8.65465 5.33945C9.01313 5.51623 9.22287 5.81682 9.31401 6.19727C9.37695 6.45985 9.41999 6.72763 9.46185 6.99467C9.49466 7.20323 9.5282 7.41401 9.53206 7.62434C9.53756 7.93176 9.52197 8.23977 9.5052 8.54703C9.49079 8.80831 9.43674 9.06587 9.34488 9.31089C9.17863 9.75516 8.99338 10.1922 8.8203 10.6339C8.76316 10.7798 8.71922 10.9309 8.66519 11.0914C8.74861 11.0914 8.8163 11.0908 8.88398 11.0917C8.91041 11.0921 8.93742 11.0929 8.96295 11.099C9.16186 11.1459 9.33434 11.236 9.4758 11.389C9.66447 11.5927 9.76348 11.8303 9.76852 12.1054C9.77134 12.2578 9.75531 12.4107 9.75605 12.5632C9.75917 13.2736 9.76452 13.984 9.77045 14.6943C9.77149 14.8104 9.77728 14.9266 9.78559 15.0425C9.80296 15.2852 9.82048 15.528 9.84423 15.7701C9.86085 15.9419 9.88401 16.1133 9.91117 16.2839C9.94962 16.5255 10.0596 16.7406 10.1844 16.9462C10.2919 17.123 10.4316 17.2732 10.6157 17.3768C10.9284 17.5529 11.2652 17.5676 11.6047 17.5027C11.834 17.4589 12.0592 17.3886 12.2819 17.316C12.5008 17.2457 12.7008 17.1262 12.8663 16.9666C13.0223 16.8153 13.133 16.6309 13.2077 16.4274C13.3525 16.0327 13.3977 15.6171 13.4576 15.2047C13.4801 15.0504 13.4995 14.8956 13.52 14.7409C13.5433 14.5648 13.5669 14.3889 13.5895 14.213C13.6061 14.082 13.6212 13.9506 13.6373 13.8195C13.6601 13.6313 13.6843 13.4432 13.7061 13.2549C13.7229 13.1093 13.7371 12.963 13.752 12.8171C13.7711 12.6307 13.7918 12.4443 13.8083 12.2575C13.821 12.1158 13.8158 11.9715 13.8409 11.8324C13.8871 11.5774 14.0076 11.3604 14.2337 11.2201C14.3282 11.1615 14.435 11.1229 14.5399 11.0733L14.5221 11.0457V11.0457ZM5.97253 9.9989C5.85979 9.73377 5.79187 9.45176 5.77155 9.16438C5.75255 8.89348 5.78476 8.62362 5.81252 8.35391C5.83953 8.09266 5.86195 7.83023 5.86981 7.56779C5.88287 7.13643 5.85378 6.70566 5.83315 6.2746C5.82068 6.01795 5.85052 5.75819 5.87338 5.50095C5.89401 5.26923 5.91969 5.03693 5.96348 4.80863C6.03695 4.42552 6.13448 4.04789 6.27312 3.68184C6.40478 3.3348 6.55604 2.9968 6.76964 2.69251C6.916 2.4838 7.0821 2.28876 7.24167 2.0848L7.19432 2.06803C6.67509 1.90312 6.14739 1.77427 5.6047 1.71802C5.34805 1.69145 5.09052 1.67586 4.83313 1.66057C4.75416 1.65582 4.674 1.66651 4.59473 1.67408C4.3985 1.69278 4.19989 1.7002 4.00677 1.73702C3.67813 1.79951 3.36285 1.9046 3.07087 2.07575C2.80873 2.22938 2.5886 2.42799 2.40424 2.66623C2.20059 2.92927 2.06358 3.22673 1.96516 3.54395C1.84894 3.91816 1.79357 4.3032 1.77858 4.69181C1.76552 5.03248 1.75898 5.37507 1.81777 5.7144C1.86155 5.96704 1.8908 6.22235 1.93904 6.47395C2.0048 6.81699 2.0753 7.15929 2.1568 7.49877C2.27332 7.98475 2.3897 8.47148 2.52774 8.95152C2.65985 9.41153 2.80888 9.86738 2.97038 10.3177C3.10249 10.6853 3.25523 11.046 3.41614 11.4019C3.52094 11.6338 3.64785 11.8569 3.78085 12.0741C3.92231 12.3046 4.08322 12.5234 4.30157 12.6907C4.57707 12.9019 4.79038 12.9347 5.07033 12.703C5.19027 12.6037 5.29165 12.4811 5.396 12.3642C5.5618 12.1787 5.72182 11.9881 5.88688 11.802C6.09707 11.5648 6.30993 11.3301 6.52116 11.0941C6.56584 11.0442 6.60873 10.9928 6.65223 10.9424L6.58038 10.8793C6.31951 10.6306 6.11261 10.331 5.97253 9.9989V9.9989ZM13.9418 2.93787C14.1145 3.13866 14.2784 3.34687 14.433 3.56191C14.7299 3.97887 14.9671 4.42908 15.1418 4.91076C15.2191 5.12302 15.2809 5.33737 15.2533 5.56967C15.2341 5.73236 15.2358 5.89742 15.2214 6.061C15.2094 6.19712 15.1878 6.33249 15.1702 6.46816C15.1437 6.67271 15.1054 6.87666 15.094 7.0821C15.0832 7.27759 15.0945 7.47516 15.1068 7.6711C15.1193 7.87016 15.1461 8.06832 15.1644 8.26708C15.185 8.49241 15.2128 8.71773 15.2191 8.94351C15.2243 9.12891 15.2079 9.31549 15.1917 9.50059C15.1724 9.72355 15.1158 9.93938 15.0315 10.1464C14.9723 10.2922 14.9015 10.4335 14.8345 10.5794L14.8614 10.6079L14.9022 10.6396L14.9434 10.5659C15.2906 10.0195 15.5992 9.44942 15.8669 8.85994C16.0382 8.47941 16.2009 8.09506 16.3548 7.70717C16.5959 7.10392 16.7866 6.48375 16.9342 5.85126C17.0004 5.5673 17.051 5.27903 17.096 4.99077C17.131 4.76544 17.1603 4.53744 17.1668 4.31003C17.1738 4.06882 17.1604 3.82568 17.1381 3.58506C17.1215 3.40338 17.0767 3.2205 16.9628 3.0728C16.7798 2.83501 16.5822 2.6076 16.3393 2.4277C16.1347 2.27614 15.9309 2.12073 15.7114 1.99322C15.3633 1.79134 14.9865 1.65686 14.5929 1.56527C14.2087 1.47577 13.8195 1.43717 13.4278 1.42901C13.1968 1.42411 12.9648 1.4489 12.7343 1.47057C12.5255 1.49016 12.3179 1.52356 12.1076 1.55117C12.3332 1.67809 12.5557 1.7909 12.7656 1.9239C13.2069 2.20341 13.6024 2.53977 13.9418 2.93787V2.93787ZM8.20845 10.7638C8.35109 10.3076 8.5454 9.87213 8.73362 9.43395C8.88621 9.07859 8.96963 8.70423 8.99739 8.31977C9.0112 8.13022 9.00734 7.93829 8.99798 7.74814C8.9887 7.5366 8.96929 7.32563 8.9398 7.11595C8.90031 6.84861 8.85534 6.58113 8.7921 6.31869C8.72352 6.03473 8.55059 5.83701 8.25431 5.76413C8.07381 5.71974 7.8945 5.72152 7.71207 5.75032C7.26646 5.82053 6.85855 5.9847 6.47855 6.22517C6.40211 6.27356 6.3601 6.3126 6.37331 6.4223C6.40122 6.6546 6.4073 6.89062 6.40627 7.12515C6.40478 7.45705 6.39068 7.78896 6.37806 8.12072C6.37391 8.22878 6.35832 8.33625 6.34674 8.44387C6.32893 8.60863 6.29464 8.77325 6.29568 8.93772C6.29672 9.10723 6.31409 9.28076 6.3552 9.44493C6.48583 9.9655 6.76252 10.3915 7.21599 10.6921C7.49491 10.8769 7.80351 10.9701 8.14224 10.9878C8.16525 10.91 8.18573 10.8365 8.20845 10.7638ZM7.67615 6.29776C7.61648 6.17248 7.65062 6.06872 7.78896 6.02063C7.82266 6.00875 7.85739 5.99613 7.89242 5.99272C7.94052 5.98797 7.9895 5.99153 8.03819 5.99153C8.21364 5.99242 8.38241 6.01691 8.52729 6.12854C8.62021 6.20009 8.64515 6.29509 8.58503 6.39261C8.49968 6.53095 8.3695 6.60042 8.20963 6.61378C7.95773 6.63471 7.78095 6.5173 7.67615 6.29776ZM14.6586 6.25204C14.6788 6.0852 14.695 5.91791 14.7156 5.75106C14.724 5.68397 14.6886 5.66586 14.6324 5.66423C14.4554 5.65933 14.2785 5.65309 14.1016 5.64983C13.9021 5.64627 13.7079 5.67833 13.5232 5.75418C13.3184 5.83849 13.1624 5.97357 13.0987 6.19652C13.0521 6.36094 13.0374 6.53274 13.0552 6.7027C13.08 6.9655 13.1396 7.22386 13.2323 7.47101C13.3561 7.80069 13.4857 8.13022 13.6405 8.44609C13.8503 8.87374 14.0876 9.28773 14.3104 9.70885C14.3699 9.82122 14.42 9.93848 14.482 10.0697C14.6071 9.80884 14.6755 9.52441 14.6825 9.23519C14.6886 8.9962 14.6695 8.75618 14.6555 8.51705C14.6468 8.37069 14.6261 8.22522 14.6119 8.07916C14.592 7.87565 14.5619 7.67229 14.5573 7.46834C14.5527 7.26097 14.5674 7.05241 14.5852 6.84534C14.6019 6.64673 14.6347 6.44976 14.6586 6.25204V6.25204ZM14.2595 6.09143C14.1937 6.27297 14.0532 6.37539 13.8709 6.40552C13.7009 6.43343 13.552 6.37064 13.4413 6.23512C13.3625 6.13863 13.3926 6.02434 13.5108 5.95917C13.6465 5.88406 13.7956 5.86506 13.9715 5.85363C14.0193 5.86239 14.0913 5.86966 14.1597 5.88926C14.2591 5.91731 14.2957 5.99198 14.2595 6.09143ZM9.00155 11.6816C8.90432 11.6022 8.77577 11.5976 8.6833 11.6847C8.56855 11.7931 8.46762 11.917 8.36668 12.0392C8.25016 12.1803 8.14091 12.3271 7.99054 12.4365C7.77174 12.5955 7.51673 12.6614 7.26037 12.7238C7.05657 12.7733 6.85188 12.8194 6.64748 12.867L6.64495 12.8934C6.70566 12.9215 6.76445 12.9565 6.82768 12.9766C7.1394 13.0753 7.45646 13.1244 7.78584 13.0965C8.02364 13.0763 8.25016 13.0245 8.4648 12.9227C8.76019 12.7827 8.98745 12.5609 9.18071 12.3029C9.21307 12.2599 9.22777 12.1962 9.23163 12.1407C9.24484 11.9446 9.14523 11.7989 9.00155 11.6816V11.6816ZM16.6833 11.7597C16.4325 11.7865 16.1813 11.815 15.9297 11.8294C15.8083 11.8364 15.6851 11.8132 15.5625 11.8033C15.3569 11.7867 15.1562 11.741 14.9824 11.6311C14.8817 11.5677 14.7982 11.5606 14.6913 11.5965C14.5387 11.6479 14.4142 11.726 14.3774 11.8913C14.3523 12.0031 14.3432 12.1189 14.3331 12.2333C14.3312 12.2535 14.3564 12.2906 14.3757 12.2957C14.4934 12.3267 14.6117 12.3634 14.7321 12.3742C14.88 12.3876 15.0305 12.3833 15.1794 12.3758C15.3401 12.3678 15.5019 12.3574 15.6603 12.3307C16.0336 12.2681 16.3948 12.1659 16.7155 11.9543C16.8312 11.8778 16.9458 11.7997 17.0607 11.7224L17.0512 11.7061C16.9286 11.7243 16.8065 11.7466 16.6833 11.7597V11.7597Z" fill="#336791"/>
</svg>
