<svg width="19" height="19" viewBox="0 0 19 19" fill="none" xmlns="http://www.w3.org/2000/svg">
<path d="M0.920337 7.82265C1.91487 8.29765 7.40706 10.5094 8.26799 10.925C9.12893 11.3406 9.75237 11.3406 10.8508 10.7766C11.9492 10.1976 17.1149 8.08984 18.1094 7.57031C18.6141 7.30312 18.8367 7.09531 18.8367 6.91718V5.06171C18.8367 4.86874 18.5844 4.70546 18.0946 4.52734C17.1297 4.17109 11.9938 2.13749 11.0141 1.7664C10.0344 1.41015 9.63362 1.42499 8.47581 1.84062C7.31799 2.25624 1.87034 4.39374 0.890649 4.77968C0.415649 4.97265 0.148462 5.13593 0.148462 5.3289H0.118774V7.21406C0.148462 7.39218 0.430493 7.58515 0.920337 7.82265V7.82265ZM9.88596 8.08984L6.87268 6.84296L11.1922 6.17499L9.88596 8.08984V8.08984ZM16.4321 5.12109L13.8789 6.13046L13.5969 6.23437L11.0438 5.22499L13.8789 4.11171L16.4321 5.12109V5.12109ZM8.92112 3.26562L8.50549 2.49374L9.81174 2.99843L11.0438 2.59765L10.7172 3.39921L11.9641 3.87421L10.3461 4.03749L9.98987 4.91327L9.41096 3.94843L7.54065 3.78515L8.92112 3.26562V3.26562ZM5.70002 4.34921C6.97659 4.34921 8.01565 4.74999 8.01565 5.23984C8.01565 5.72968 6.97659 6.13046 5.70002 6.13046C4.42346 6.13046 3.3844 5.72968 3.3844 5.23984C3.3844 4.74999 4.42346 4.34921 5.70002 4.34921V4.34921ZM18.1094 8.87656C17.1149 9.39609 11.9641 11.5187 10.8656 12.0828C9.76721 12.6617 9.15862 12.6469 8.29768 12.2312C7.43674 11.8156 1.91487 9.6039 0.935181 9.1289C0.430493 8.8914 0.148462 8.69843 0.148462 8.50546V10.3906C0.148462 10.5836 0.430493 10.7766 0.920337 11.0141C1.91487 11.4891 7.40706 13.7008 8.26799 14.1164C9.12893 14.532 9.75237 14.532 10.8508 13.968C11.9492 13.3891 17.1149 11.2812 18.1094 10.7617C18.6141 10.4945 18.8367 10.2867 18.8367 10.1086V8.25312C18.8367 8.4164 18.5992 8.62421 18.1094 8.87656V8.87656ZM18.1094 11.9492C17.1149 12.4687 11.9641 14.5914 10.8656 15.1555C9.76721 15.7344 9.15862 15.7195 8.29768 15.3039C7.43674 14.8883 1.91487 12.6766 0.935181 12.2016C0.430493 11.9789 0.148462 11.7711 0.148462 11.5781V13.4633C0.148462 13.6562 0.430493 13.8492 0.920337 14.0867C1.91487 14.5617 7.40706 16.7734 8.26799 17.1891C9.12893 17.6047 9.75237 17.6047 10.8508 17.0406C11.9492 16.4617 17.1149 14.3539 18.1094 13.8344C18.6141 13.5672 18.8367 13.3594 18.8367 13.1812V11.3258C18.8367 11.5039 18.5992 11.6969 18.1094 11.9492Z" fill="#D82C20"/>
</svg>
