<svg width="19" height="19" viewBox="0 0 19 19" fill="none" xmlns="http://www.w3.org/2000/svg">
<path d="M13.1649 13.0788C11.829 15.8101 9.48961 17.6478 6.39469 18.2519C5.92016 18.3682 5.43301 18.425 4.94446 18.4211C3.16321 18.4211 1.53039 17.6789 0.737738 16.4632C-0.326559 14.8438 -0.688746 11.4104 2.82032 8.87064C2.89157 9.25807 3.03704 9.78947 3.13352 10.1042C2.44467 10.6159 1.88082 11.2772 1.48438 12.0383C0.831254 13.3208 0.903988 14.6018 1.67735 15.7863C2.21172 16.5849 3.05782 17.0703 4.14586 17.2188C5.50486 17.3908 6.88354 17.1311 8.08688 16.4766C9.97352 15.485 11.2308 14.3005 12.0531 12.681C11.8206 12.4407 11.683 12.1244 11.6657 11.7904C11.6533 11.4321 11.7835 11.0834 12.0279 10.821C12.2722 10.5586 12.6107 10.4038 12.969 10.3906H13.0195C13.368 10.3889 13.7038 10.5212 13.9575 10.7602C14.2112 10.9992 14.3634 11.3265 14.3824 11.6745C14.4015 12.0225 14.2861 12.3645 14.06 12.6298C13.8339 12.8951 13.5145 13.0633 13.1679 13.0996L13.1649 13.0788ZM17.4206 10.0804C19.2331 12.1348 19.282 14.5528 18.5814 15.9556C17.9283 17.2366 16.2064 18.5191 13.8908 18.5191C12.8098 18.497 11.7464 18.2413 10.7736 17.7695C11.1135 17.5275 11.5959 17.1401 11.8616 16.8981C12.6118 17.2231 13.4192 17.3957 14.2366 17.4058C15.7359 17.4058 16.8714 16.7052 17.5483 15.4242C17.9832 14.5781 18.0084 13.5865 17.5973 12.5712C17.0927 11.2937 16.195 10.2098 15.0338 9.47627C13.5103 8.4493 11.7143 7.90182 9.87704 7.90432H9.44211C9.3407 8.13859 9.17571 8.33979 8.96584 8.48512C8.75596 8.63046 8.50959 8.71413 8.25461 8.72666H8.2086C7.85593 8.72233 7.51885 8.58068 7.26895 8.33181C7.01904 8.08294 6.876 7.74645 6.8702 7.3938C6.86441 7.04116 6.99631 6.70015 7.2379 6.4432C7.47949 6.18625 7.81174 6.0336 8.16407 6.01768H8.21305C8.45858 6.01786 8.6993 6.0857 8.90879 6.21375C9.11828 6.3418 9.28843 6.52511 9.40055 6.74354H9.78797C12.8755 6.74354 15.5859 7.92807 17.4206 10.0804ZM5.13743 13.4945C5.11201 13.248 5.17172 13.0002 5.30664 12.7924C3.95289 10.4471 3.22852 7.47385 4.34032 4.37893C5.13743 2.05291 7.1443 0.480957 9.32039 0.480957C11.642 0.480957 14.06 2.51307 14.3495 6.42885C13.9873 6.30861 13.4588 6.13197 13.1412 6.06666C13.0625 4.78564 11.9804 1.59424 9.41688 1.64174C8.49805 1.66697 7.1443 2.10189 6.44813 2.99549C5.58699 4.06219 5.08603 5.37435 5.01719 6.74354C4.85402 8.62094 5.29449 10.5014 6.27446 12.111C6.32856 12.0913 6.38623 12.0832 6.44368 12.0873H6.49118C6.85021 12.0808 7.19712 12.2172 7.4556 12.4665C7.71407 12.7158 7.86292 13.0575 7.86942 13.4165C7.87591 13.7756 7.73952 14.1225 7.49023 14.381C7.24095 14.6394 6.8992 14.7883 6.54016 14.7948H6.49118C6.14091 14.7935 5.80463 14.6572 5.55243 14.4141C5.30024 14.171 5.15157 13.84 5.13743 13.49V13.4945Z" fill="#764ABC"/>
</svg>
