<svg width="19" height="19" viewBox="0 0 19 19" fill="none" xmlns="http://www.w3.org/2000/svg">
<path fill-rule="evenodd" clip-rule="evenodd" d="M0.180946 8.33566C0.180946 8.44001 0.211673 8.50888 0.228892 8.57583C0.34111 9.0112 0.582321 9.38481 0.868509 9.72562C1.27612 10.2113 1.77531 10.6023 2.28668 10.97C2.73021 11.2888 3.1828 11.6005 3.62811 11.917C3.70456 11.9713 3.77684 12.0338 3.85982 12.1005C3.78842 12.1391 3.72905 12.1731 3.6673 12.2044C3.07963 12.5024 2.51424 12.8366 1.99307 13.2414C1.67898 13.4854 1.37527 13.7447 1.16078 14.0836C0.815665 14.6287 0.693501 15.2094 0.950743 15.8294C1.02585 16.0105 1.14045 16.1669 1.30209 16.2826C1.35449 16.32 1.41327 16.3571 1.47458 16.3716C1.63163 16.4086 1.79164 16.4328 1.95062 16.462L2.40083 16.4617C2.89869 16.4173 3.35187 16.2468 3.76141 15.9642C4.40147 15.5224 4.83268 14.9301 5.01808 14.17C5.15286 13.6175 5.15835 13.0644 4.99952 12.5145C4.98432 12.4635 4.96679 12.4133 4.94698 12.364C4.92768 12.3145 4.90497 12.2664 4.87825 12.2048L5.89891 11.6179L5.9142 11.631C5.89564 11.6917 5.8759 11.7522 5.85913 11.8135C5.73785 12.2565 5.65725 12.7071 5.6862 13.1669C5.71707 13.6567 5.85378 14.1152 6.14056 14.5245C6.37242 14.8555 6.92491 14.8678 7.17131 14.5356C7.25874 14.4176 7.3435 14.2942 7.40718 14.1626C7.57358 13.8189 7.72766 13.4692 7.88663 13.1219L7.91439 13.0583C7.90296 13.2228 7.8896 13.3672 7.88352 13.5118C7.87402 13.7376 7.88723 13.962 7.96441 14.1768C8.03047 14.3606 8.14284 14.4979 8.35332 14.5221C8.49731 14.5386 8.61205 14.4727 8.71788 14.3891C8.88185 14.2595 9.01775 14.098 9.11733 13.9142C9.39951 13.396 9.68926 12.881 9.94502 12.3497C10.2217 11.7751 10.4637 11.1837 10.7206 10.5993L10.7631 10.4957C10.8238 10.7343 10.8661 10.9679 10.944 11.1891C11.0345 11.4457 11.1466 11.6963 11.2686 11.9399C11.3264 12.0549 11.3197 12.1296 11.2397 12.2261C10.9048 12.6298 10.5757 13.0385 10.2463 13.4467C10.1735 13.5368 10.1009 13.6285 10.0402 13.7269C10.0033 13.7891 9.97912 13.8579 9.96891 13.9294C9.9587 13.9952 9.97437 14.0625 10.0126 14.117C10.0509 14.1715 10.1088 14.2092 10.1742 14.2219C10.3062 14.2504 10.4415 14.26 10.5762 14.2506C11.0359 14.2168 11.4533 14.0554 11.8223 13.782C12.3004 13.4278 12.4539 12.9445 12.3381 12.3717C12.3068 12.2163 12.2514 12.0651 12.1976 11.9154C12.1734 11.8478 12.1717 11.8005 12.2158 11.7375C12.598 11.1917 12.9246 10.6127 13.2283 10.0203C13.2403 9.99697 13.2526 9.97366 13.2737 9.94873C13.3721 10.4608 13.5203 10.9544 13.7857 11.4022C13.6503 11.5327 13.5163 11.651 13.395 11.7813C13.128 12.0684 12.8964 12.3801 12.7756 12.7603C12.7236 12.9242 12.6837 13.0907 12.7068 13.2657C12.7428 13.5375 12.9654 13.7141 13.2328 13.6522C13.8048 13.5198 14.2987 13.2503 14.6595 12.7727C14.9024 12.4512 14.9245 12.0926 14.8228 11.7169C14.7949 11.6148 14.7618 11.5143 14.7262 11.3972C14.8674 11.3534 15.005 11.3008 15.1473 11.2683C15.8864 11.0997 16.6174 11.1291 17.3296 11.396C17.7454 11.5519 18.0813 11.8127 18.2805 12.2229C18.5238 12.7245 18.3893 13.2004 17.9166 13.5175C17.8725 13.547 17.822 13.5703 17.7855 13.6073C17.7738 13.6208 17.765 13.6367 17.7598 13.6538C17.7546 13.6709 17.7529 13.6889 17.7551 13.7067C17.7582 13.725 17.8064 13.7478 17.8342 13.7475C17.9896 13.7464 18.1156 13.6649 18.2366 13.5811C18.5397 13.3714 18.7609 13.0892 18.8085 12.7177L18.8179 12.6898L18.8064 12.4478C18.8018 12.4339 18.8099 12.4201 18.8088 12.4095C18.7444 11.8685 18.4554 11.4488 18.035 11.1199C17.5481 10.7392 16.9732 10.5824 16.3652 10.5576C15.8721 10.5364 15.3796 10.6122 14.9157 10.7807C14.7826 10.829 14.6506 10.8861 14.5167 10.94C14.4988 10.9075 14.4795 10.8763 14.4636 10.8441C14.3261 10.5627 14.1596 10.2937 14.1228 9.97099C14.0967 9.7418 14.0646 9.51291 14.1191 9.28625C14.1715 9.0682 14.2398 8.85385 14.304 8.63877C14.3371 8.52803 14.3138 8.46598 14.2081 8.41611C14.1713 8.39775 14.132 8.38484 14.0915 8.37781C13.8317 8.34011 13.5755 8.36163 13.3239 8.43481C13.2348 8.46079 13.1701 8.51066 13.1504 8.60923C13.1391 8.66578 13.1161 8.71996 13.1001 8.77577C13.0343 9.00778 12.9877 9.24424 12.8814 9.46527C12.6151 10.0197 12.3111 10.5532 12 11.0828C11.9663 11.1399 11.9308 11.196 11.8884 11.2654C11.7791 11.0368 11.6626 10.8316 11.6273 10.5912C11.5873 10.3192 11.5559 10.0477 11.6235 9.77788C11.6739 9.57659 11.7396 9.37902 11.8002 9.18041C11.8288 9.08601 11.8156 9.03643 11.7301 8.9867C11.6869 8.96162 11.6381 8.93935 11.5894 8.93208C11.323 8.89151 11.0509 8.91377 10.7947 8.99709C10.7141 9.02322 10.6718 9.07532 10.6471 9.15845C10.5747 9.40366 10.5129 9.65482 10.4113 9.88802C9.99949 10.8321 9.57585 11.7712 9.15266 12.7103C9.06434 12.9063 8.96088 13.0956 8.86127 13.2865C8.83604 13.3349 8.79923 13.3775 8.76776 13.4229C8.74252 13.3931 8.73273 13.3726 8.73288 13.3521C8.73362 13.2314 8.71922 13.1072 8.74223 12.9905C8.81288 12.6376 8.89097 12.2863 8.97646 11.9368C9.04623 11.6479 9.12742 11.3617 9.20476 11.0748C9.23074 10.9787 9.23118 10.8889 9.16216 10.8082C9.04623 10.673 8.80398 10.6433 8.66029 10.7475L8.59676 10.7834L8.60908 10.681C8.63936 10.4614 8.64545 10.2426 8.58518 10.0264C8.51007 9.7568 8.3177 9.60168 8.03804 9.61029C7.90771 9.6143 7.77085 9.63656 7.65017 9.68406C7.14266 9.88297 6.75242 10.2352 6.42022 10.659C6.38942 10.6983 6.35126 10.7313 6.30785 10.7561C5.87842 10.9942 5.44766 11.2293 5.01704 11.4653L4.53774 11.7279C4.40919 11.6053 4.29237 11.4781 4.15981 11.3702C3.75502 11.04 3.3437 10.7181 2.93609 10.3917C2.5748 10.1024 2.22478 9.80103 1.957 9.41791C1.7578 9.13291 1.6294 8.82105 1.61708 8.46866C1.60149 8.01963 1.72885 7.60935 1.95745 7.22742C2.24987 6.73877 2.64872 6.34659 3.0872 5.99138C3.55107 5.61584 4.05279 5.29699 4.57277 5.00591C5.30026 4.59874 6.04853 4.23834 6.85084 4.00039C7.67348 3.75636 8.50814 3.61668 9.36908 3.71405C9.70752 3.75235 10.0362 3.82984 10.3379 3.99534C10.569 4.12196 10.7586 4.28777 10.8468 4.54694C10.9338 4.80195 10.9311 5.06038 10.8708 5.31941C10.7484 5.84398 10.4611 6.27638 10.0997 6.66277C9.50683 7.29615 8.78364 7.72736 7.96946 8.01221C7.50133 8.17621 7.01427 8.2801 6.51997 8.32141C6.11488 8.3554 5.71826 8.31948 5.3347 8.17861C5.08072 8.08524 4.85955 7.94245 4.68172 7.73523C4.64995 7.69812 4.60928 7.65789 4.55006 7.69263C4.49202 7.72677 4.48177 7.78198 4.50122 7.83795C4.53373 7.93087 4.56371 8.02765 4.61433 8.11077C4.74154 8.31933 4.92709 8.47059 5.13134 8.60032C5.52366 8.84984 5.96214 8.93371 6.41681 8.95316C7.10674 8.98299 7.77991 8.87998 8.44357 8.69488C9.39105 8.43066 10.2149 7.96397 10.8756 7.22772C11.4257 6.61467 11.8186 5.9228 11.9028 5.0874C11.9439 4.67964 11.9001 4.2802 11.7092 3.90821C11.5021 3.5052 11.1729 3.20551 10.7792 2.99903C10.206 2.69845 9.58728 2.52344 8.9487 2.52344H8.30894C7.53558 2.52344 6.7879 2.74505 6.06115 3.00942C5.51104 3.20966 4.97162 3.44598 4.44793 3.70752C3.30749 4.27737 2.24542 4.96449 1.37305 5.9093C0.938423 6.37999 0.570446 6.89937 0.358774 7.51094C0.294888 7.69352 0.239852 7.87909 0.19386 8.06698M4.32621 13.4127C4.27678 14.0745 3.97679 14.6111 3.4865 15.0458C3.2107 15.2901 2.89438 15.4641 2.52596 15.5252C2.39237 15.5473 2.25566 15.5527 2.12607 15.4973C1.94127 15.4184 1.89985 15.2543 1.89629 15.0796C1.8908 14.8011 1.98832 14.5494 2.12206 14.3098C2.29663 13.9975 2.55253 13.7594 2.82581 13.5371C3.25627 13.1866 3.72326 12.89 4.20152 12.6101L4.2376 12.5952C4.31152 12.8683 4.3467 13.1381 4.32621 13.4127ZM8.0606 10.5361C8.02572 10.7475 7.98208 10.959 7.92033 11.1638C7.70688 11.8729 7.43271 12.56 7.13628 13.238C7.08151 13.3634 7.0018 13.4778 6.93248 13.5967C6.92068 13.615 6.90656 13.6317 6.89047 13.6463C6.80467 13.7311 6.72333 13.7266 6.67999 13.6157C6.62952 13.4869 6.59849 13.349 6.57177 13.2126C6.55381 13.121 6.55812 13.0248 6.55248 12.931C6.55827 12.2639 6.76177 11.6577 7.10704 11.0933C7.24939 10.8606 7.40436 10.6388 7.64112 10.4916C7.71477 10.4458 7.79446 10.4105 7.87788 10.3868C8.00405 10.3513 8.08153 10.4096 8.0606 10.5361ZM10.6084 13.7821L11.5241 12.7129C11.5622 13.11 10.8873 13.9027 10.6084 13.7821ZM13.533 13.0626C13.4683 13.0998 13.3978 13.1265 13.3315 13.1608C13.2708 13.1922 13.2507 13.1605 13.2489 13.1082C13.248 13.072 13.2527 13.036 13.2627 13.0012C13.3864 12.5651 13.6139 12.1928 13.9525 11.89L13.9763 11.8778C14.1373 12.3283 13.9512 12.8231 13.533 13.0626Z" fill="#CB6699"/>
</svg>
