<svg width="19" height="19" viewBox="0 0 19 19" fill="none" xmlns="http://www.w3.org/2000/svg">
<path d="M9.4927 0.000152588C4.25954 0.000152588 0.00012207 4.25957 0.00012207 9.49273C0.00012207 14.7259 4.25954 18.9853 9.4927 18.9853C14.7259 18.9853 18.9853 14.7259 18.9853 9.49273C18.9853 4.25957 14.7259 0.000152588 9.49255 0.000152588H9.4927ZM9.4927 1.58532C13.8692 1.58532 17.4003 5.1162 17.4003 9.49273C17.4003 13.8694 13.8692 17.4003 9.4927 17.4003C5.11617 17.4003 1.58514 13.8694 1.58514 9.49273C1.58514 5.1162 5.11617 1.58532 9.4927 1.58532Z" fill="#454545"/>
<path fill-rule="evenodd" clip-rule="evenodd" d="M7.18292 9.01254C9.26164 7.31441 11.2949 5.55721 13.4189 3.90866C12.3049 5.62059 11.1591 7.30981 10.0451 9.02159C9.0896 9.02604 8.13396 9.02604 7.18292 9.01254V9.01254ZM8.94012 9.95897C9.90021 9.95897 10.8557 9.95897 11.8112 9.97263C9.71897 11.6618 7.69473 13.4326 5.56628 15.0765C6.68031 13.3646 7.8261 11.6709 8.94012 9.95897V9.95897Z" fill="#454545"/>
</svg>
