<svg width="27" height="27" viewBox="0 0 27 27" fill="none" xmlns="http://www.w3.org/2000/svg">
<path fill-rule="evenodd" clip-rule="evenodd" d="M8.15651 16.932C8.1472 17.3191 8.40259 17.6629 8.77591 17.7658C9.14924 17.8686 9.54464 17.7041 9.7349 17.3669L10.75 15.5674C11.9538 13.4333 14.3503 12.2642 16.7732 12.6288L16.9412 12.6541C16.9714 13.4167 17.0143 14.1789 17.0698 14.9404L17.1461 15.9874C17.2082 16.8388 18.1575 17.3148 18.8769 16.8551C21.2368 15.3472 23.2883 13.4042 24.9222 11.1297L25.4353 10.4154C25.6466 10.1213 25.6466 9.72507 25.4353 9.43091L24.9222 8.71661C23.2883 6.44213 21.2368 4.49916 18.8769 2.99125C18.1575 2.53159 17.2082 3.00755 17.1461 3.85897L17.0698 4.90594C17.025 5.51988 16.9885 6.13428 16.9602 6.74895L15.8147 6.74895C11.6919 6.74895 8.32224 10.0386 8.22315 14.1602L8.15651 16.932ZM17.0244 10.9601C14.3027 10.5505 11.6069 11.6462 9.93707 13.7595C10.2314 10.7634 12.7567 8.43645 15.8147 8.43645L17.7707 8.43645C18.2255 8.43645 18.5985 8.07605 18.614 7.62155C18.6436 6.75665 18.6899 5.89218 18.7528 5.02862L18.7589 4.94486C20.6078 6.25173 22.2281 7.85867 23.5516 9.70113L23.7111 9.92317L23.5516 10.1452C22.2281 11.9877 20.6078 13.5946 18.7589 14.9015L18.7528 14.8177C18.682 13.8459 18.6322 12.8728 18.6037 11.8994C18.5917 11.4914 18.2894 11.1505 17.8858 11.0898L17.0244 10.9601Z" fill="#DADADA"/>
<path d="M22.0965 19.5877C22.2292 18.4533 22.3228 17.3156 22.3775 16.1764C22.3834 16.0531 22.4393 15.9376 22.5319 15.8559C22.9406 15.495 23.3367 15.12 23.7194 14.7316C23.8633 14.5855 24.1148 14.6877 24.1104 14.8927C24.0753 16.5261 23.9627 18.1583 23.7726 19.7837C23.5065 22.0591 21.6791 23.8422 19.4155 24.0952C15.5156 24.5311 11.4844 24.5311 7.58448 24.0952C5.32092 23.8422 3.49354 22.0591 3.22742 19.7837C2.76107 15.7964 2.76107 11.7683 3.22742 7.78095C3.49354 5.50561 5.32092 3.72247 7.58448 3.46948C10.1618 3.18143 12.7965 3.08374 15.4128 3.17642C15.6331 3.18423 15.7847 3.39987 15.7573 3.61856C15.7515 3.6641 15.747 3.71017 15.7436 3.75673L15.6859 4.54853C15.6726 4.73032 15.5174 4.86863 15.3353 4.86224C12.8073 4.77355 10.2613 4.86832 7.77192 5.14654C6.27555 5.31378 5.07687 6.4946 4.9035 7.97699C4.45237 11.8341 4.45237 15.7306 4.9035 19.5877C5.07688 21.0701 6.27555 22.2509 7.77192 22.4181C11.5472 22.8401 15.4528 22.8401 19.2281 22.4181C20.7245 22.2509 21.9231 21.0701 22.0965 19.5877Z" fill="#DADADA"/>
</svg>
