<svg width="19" height="19" viewBox="0 0 19 19" fill="none" xmlns="http://www.w3.org/2000/svg">
<path d="M9.50058 3.80029C6.9672 3.80029 5.38441 5.06647 4.75058 7.59985C5.70028 6.33353 6.80896 5.85868 8.07528 6.17529C8.79832 6.3555 9.31503 6.87978 9.88726 7.46076C10.8186 8.40586 11.8965 9.5 14.2506 9.5C16.7838 9.5 18.3668 8.23368 19.0006 5.6997C18.0507 6.96676 16.9422 7.44161 15.6757 7.125C14.9528 6.94464 14.4367 6.42051 13.8638 5.83953C12.933 4.89443 11.8554 3.80029 9.50058 3.80029ZM4.75058 9.5C2.21735 9.5 0.634408 10.7663 0.000579834 13.3003C0.950283 12.0332 2.05881 11.5584 3.32528 11.875C4.04832 12.0553 4.56503 12.5795 5.13726 13.1605C6.06856 14.1056 7.14651 15.1997 9.50058 15.1997C12.0338 15.1997 13.6168 13.9335 14.2506 11.4001C13.3007 12.6665 12.1922 13.1413 10.9257 12.8247C10.2028 12.6445 9.68672 12.1202 9.11375 11.5392C8.18305 10.5941 7.10539 9.5 4.75058 9.5Z" fill="#38B2AC"/>
</svg>
