<svg width="19" height="19" viewBox="0 0 19 19" fill="none" xmlns="http://www.w3.org/2000/svg">
<path d="M3.36508 6.97656H18.1598V17.912H3.36508V6.97656Z" fill="white"/>
<path d="M0.222656 9.48663V18.764H18.7773V0.20929H0.222656V9.48663ZM15.1748 8.74445C15.6192 8.84758 16.0231 9.08 16.3355 9.41241C16.5076 9.5915 16.6571 9.79088 16.7809 10.0062C16.7809 10.0299 15.9793 10.5717 15.4909 10.8745C15.4731 10.8864 15.4019 10.8092 15.3232 10.6919C15.2341 10.5381 15.1074 10.4094 14.955 10.3177C14.8026 10.2261 14.6295 10.1746 14.4519 10.168C13.8893 10.1294 13.5271 10.4248 13.5301 10.9101C13.5254 11.031 13.5531 11.1509 13.6102 11.2575C13.7334 11.5143 13.9635 11.6672 14.6849 11.9789C16.0134 12.5504 16.582 12.9274 16.9352 13.4633C17.3301 14.057 17.4177 15.0159 17.1505 15.7255C16.8536 16.4973 16.1263 17.0213 15.0976 17.195C14.6278 17.2488 14.153 17.2438 13.6845 17.1801C12.9663 17.0618 12.3047 16.7169 11.7963 16.196C11.6256 16.0075 11.2931 15.5162 11.3139 15.4805C11.3681 15.4403 11.4251 15.4041 11.4846 15.3722L12.1719 14.9922L12.7048 14.6834L12.8161 14.8482C13.004 15.117 13.2431 15.346 13.5197 15.5221C14.1134 15.8338 14.9239 15.7908 15.3247 15.4301C15.4593 15.2979 15.5432 15.1227 15.5619 14.935C15.5806 14.7473 15.5329 14.559 15.4271 14.4029C15.2787 14.1966 14.9818 14.0229 14.152 13.6607C13.1946 13.248 12.782 12.9927 12.4049 12.586C12.1695 12.3176 11.9958 12.001 11.8958 11.6583C11.8212 11.2668 11.8102 10.8658 11.8631 10.4708C12.0605 9.54601 12.7537 8.9003 13.7661 8.70882C14.2349 8.65081 14.7098 8.66382 15.1748 8.74741V8.74445ZM10.8196 9.52226V10.2823H8.41047V17.1445H6.70195V10.2808H4.28687V9.53859C4.27935 9.28264 4.2853 9.02648 4.30469 8.77116C4.31656 8.7578 5.78906 8.7578 7.57031 8.7578H10.8107L10.8196 9.52226Z" fill="#007ACC"/>
</svg>
