<svg width="19" height="19" viewBox="0 0 19 19" fill="none" xmlns="http://www.w3.org/2000/svg">
<path d="M0.542659 6.68607C0.542659 6.68607 0.0933384 6.36084 0.633206 5.92711L1.89017 4.79988C1.89017 4.79988 2.25028 4.42002 2.63073 4.75119L14.2348 13.5577V17.7807C14.2348 17.7807 14.229 18.444 13.3803 18.3709L0.542659 6.68607Z" fill="#2489CA"/>
<path d="M3.53415 9.40782L0.54269 12.1336C0.54269 12.1336 0.235425 12.3626 0.54269 12.7726L1.93147 14.0383C1.93147 14.0383 2.2613 14.3938 2.74907 13.9896L5.91954 11.5793L3.53415 9.40782Z" fill="#1070B3"/>
<path d="M8.78514 9.43038L14.2704 5.23183L14.2349 1.03149C14.2349 1.03149 14.0006 0.114742 13.2191 0.592265L5.91956 7.25132L8.78514 9.43038Z" fill="#0877B9"/>
<path d="M13.3802 18.3761C13.6986 18.7031 14.0848 18.5958 14.0848 18.5958L18.3594 16.4847C18.9066 16.1107 18.8301 15.6468 18.8301 15.6468V3.03777C18.8301 2.48336 18.2642 2.29202 18.2642 2.29202L14.5591 0.501719C13.7496 0.00014855 13.2191 0.592266 13.2191 0.592266C13.2191 0.592266 13.9009 0.0998985 14.2349 1.03164V17.7037C14.2349 17.8184 14.2105 17.9308 14.1618 18.0323C14.0645 18.2301 13.8522 18.4138 13.3448 18.3368L13.3802 18.3761Z" fill="#3C99D4"/>
</svg>
