<svg width="19" height="19" viewBox="0 0 19 19" fill="none" xmlns="http://www.w3.org/2000/svg">
<path d="M17.4102 14.5617L9.83246 18.8516V15.5102L14.5468 12.9141L17.4102 14.5617V14.5617ZM17.9297 14.0927V5.12852L15.1569 6.73164V12.4925L17.9282 14.0912L17.9297 14.0927ZM1.58972 14.5617L9.16003 18.8486V15.5102L4.44417 12.9141L1.58972 14.5617ZM1.07019 14.0927V5.12852L3.843 6.73164V12.4925L1.07019 14.0927ZM1.39527 4.54812L9.16746 0.148438V3.37844L4.18738 6.11711L4.1473 6.13938L1.39527 4.54812ZM17.6017 4.54812L9.83246 0.148438V3.37844L14.8125 6.11563L14.8526 6.13789L17.6046 4.54812H17.6017Z" fill="#8ED6FB"/>
<path d="M9.16751 14.7502L4.50806 12.1867V7.11313L9.16751 9.79688V14.7502ZM9.83251 14.7502L14.492 12.1897V7.11313L9.83251 9.79688V14.7502ZM4.82423 6.53125L9.50001 3.95734L14.1758 6.53125L9.50001 9.22688L4.82423 6.53125Z" fill="#1C78C0"/>
</svg>
